<?xml version="1.0" encoding="utf-8"?>
<!-- Generator: Adobe Illustrator 21.0.0, SVG Export Plug-In . SVG Version: 6.00 Build 0)  -->
<svg version="1.1" id="grid" xmlns="http://www.w3.org/2000/svg" xmlns:xlink="http://www.w3.org/1999/xlink" x="0px" y="0px"
	 viewBox="0 0 800 800" style="enable-background:new 0 0 800 800;" xml:space="preserve">
<style type="text/css">
	.st0{fill:#FFFFFF;}
	.st1{fill:#2E3192;}
	.st2{fill:#FFC60B;}
	.st3{fill:#ED1C24;}
</style>
<g>
	<path class="st0" d="M719.6,719.6"/>
	<line class="st0" x1="719.6" y1="719.6" x2="719.6" y2="693"/>
	<line class="st0" x1="719.6" y1="693" x2="719.6" y2="666.3"/>
	<line class="st0" x1="719.6" y1="666.3" x2="719.6" y2="639.7"/>
	<line class="st0" x1="719.6" y1="639.7" x2="719.6" y2="613.1"/>
	<line class="st0" x1="719.6" y1="613.1" x2="719.6" y2="586.4"/>
	<line class="st0" x1="719.6" y1="586.4" x2="719.6" y2="559.8"/>
	<line class="st0" x1="719.6" y1="559.8" x2="719.6" y2="533.2"/>
	<line class="st0" x1="719.6" y1="533.2" x2="719.6" y2="506.5"/>
	<line class="st0" x1="719.6" y1="506.5" x2="719.6" y2="479.9"/>
	<line class="st0" x1="719.6" y1="479.9" x2="719.6" y2="453.3"/>
	<line class="st0" x1="719.6" y1="453.3" x2="719.6" y2="426.6"/>
	<path class="st0" d="M693,746.2"/>
	<rect x="693" y="693" class="st1" width="26.6" height="26.6"/>
	<rect x="693" y="666.3" class="st1" width="26.6" height="26.6"/>
	<rect x="693" y="639.7" class="st1" width="26.6" height="26.6"/>
	<rect x="693" y="613.1" class="st1" width="26.6" height="26.6"/>
	<rect x="693" y="586.4" class="st1" width="26.6" height="26.6"/>
	<rect x="693" y="559.8" class="st1" width="26.6" height="26.6"/>
	<rect x="693" y="533.2" class="st1" width="26.6" height="26.6"/>
	<rect x="693" y="506.5" class="st1" width="26.6" height="26.6"/>
	<rect x="693" y="479.9" class="st1" width="26.6" height="26.6"/>
	<rect x="693" y="453.3" class="st1" width="26.6" height="26.6"/>
	<rect x="693" y="426.6" class="st1" width="26.6" height="26.6"/>
	<line class="st0" x1="666.3" y1="746.2" x2="693" y2="746.2"/>
	<rect x="666.3" y="719.6" class="st1" width="26.6" height="26.6"/>
	<rect x="666.3" y="693" class="st2" width="26.6" height="26.6"/>
	<rect x="666.3" y="666.3" class="st2" width="26.6" height="26.6"/>
	<rect x="666.3" y="639.7" class="st2" width="26.6" height="26.6"/>
	<rect x="666.3" y="613.1" class="st3" width="26.6" height="26.6"/>
	<rect x="666.3" y="586.4" class="st3" width="26.6" height="26.6"/>
	<rect x="666.3" y="559.8" class="st3" width="26.6" height="26.6"/>
	<rect x="666.3" y="533.2" class="st3" width="26.6" height="26.6"/>
	<rect x="666.3" y="506.5" class="st2" width="26.6" height="26.6"/>
	<rect x="666.3" y="479.9" class="st2" width="26.6" height="26.6"/>
	<rect x="666.3" y="453.3" class="st2" width="26.6" height="26.6"/>
	<rect x="666.3" y="426.6" class="st1" width="26.6" height="26.6"/>
	<rect x="666.3" y="400" class="st1" width="26.6" height="26.6"/>
	<line class="st0" x1="639.7" y1="746.2" x2="666.3" y2="746.2"/>
	<rect x="639.7" y="719.6" class="st1" width="26.6" height="26.6"/>
	<rect x="639.7" y="693" class="st2" width="26.6" height="26.6"/>
	<rect x="639.7" y="666.3" class="st2" width="26.6" height="26.6"/>
	<rect x="639.7" y="639.7" class="st2" width="26.6" height="26.6"/>
	<rect x="639.7" y="613.1" class="st3" width="26.6" height="26.6"/>
	<rect x="639.7" y="586.4" class="st3" width="26.6" height="26.6"/>
	<rect x="639.7" y="559.8" class="st3" width="26.6" height="26.6"/>
	<rect x="639.7" y="533.2" class="st3" width="26.6" height="26.6"/>
	<rect x="639.7" y="506.5" class="st2" width="26.6" height="26.6"/>
	<rect x="639.7" y="479.9" class="st2" width="26.6" height="26.6"/>
	<rect x="639.7" y="453.3" class="st2" width="26.6" height="26.6"/>
	<rect x="639.7" y="426.6" class="st1" width="26.6" height="26.6"/>
	<rect x="639.7" y="400" class="st1" width="26.6" height="26.6"/>
	<line class="st0" x1="613.1" y1="746.2" x2="639.7" y2="746.2"/>
	<rect x="613.1" y="719.6" class="st1" width="26.6" height="26.6"/>
	<rect x="613.1" y="693" class="st2" width="26.6" height="26.6"/>
	<rect x="613.1" y="666.3" class="st2" width="26.6" height="26.6"/>
	<rect x="613.1" y="639.7" class="st2" width="26.6" height="26.6"/>
	<rect x="613.1" y="613.1" class="st3" width="26.6" height="26.6"/>
	<rect x="613.1" y="586.4" class="st3" width="26.6" height="26.6"/>
	<rect x="613.1" y="559.8" class="st3" width="26.6" height="26.6"/>
	<rect x="613.1" y="533.2" class="st3" width="26.6" height="26.6"/>
	<rect x="613.1" y="506.5" class="st2" width="26.6" height="26.6"/>
	<rect x="613.1" y="479.9" class="st2" width="26.6" height="26.6"/>
	<rect x="613.1" y="453.3" class="st2" width="26.6" height="26.6"/>
	<rect x="613.1" y="426.6" class="st1" width="26.6" height="26.6"/>
	<rect x="613.1" y="400" class="st1" width="26.6" height="26.6"/>
	<line class="st0" x1="586.4" y1="746.2" x2="613.1" y2="746.2"/>
	<rect x="586.4" y="719.6" class="st1" width="26.6" height="26.6"/>
	<rect x="586.4" y="693" class="st2" width="26.6" height="26.6"/>
	<rect x="586.4" y="666.3" class="st2" width="26.6" height="26.6"/>
	<rect x="586.4" y="639.7" class="st2" width="26.6" height="26.6"/>
	<rect x="586.4" y="613.1" class="st3" width="26.6" height="26.6"/>
	<rect x="586.4" y="586.4" class="st3" width="26.6" height="26.6"/>
	<rect x="586.4" y="559.8" class="st3" width="26.6" height="26.6"/>
	<rect x="586.4" y="533.2" class="st3" width="26.6" height="26.6"/>
	<rect x="586.4" y="506.5" class="st2" width="26.6" height="26.6"/>
	<rect x="586.4" y="479.9" class="st2" width="26.6" height="26.6"/>
	<rect x="586.4" y="453.3" class="st2" width="26.6" height="26.6"/>
	<rect x="586.4" y="426.6" class="st1" width="26.6" height="26.6"/>
	<rect x="586.4" y="400" class="st2" width="26.6" height="26.6"/>
	<rect x="586.4" y="373.4" class="st1" width="26.6" height="26.6"/>
	<line class="st0" x1="559.8" y1="746.2" x2="586.4" y2="746.2"/>
	<rect x="559.8" y="719.6" class="st1" width="26.6" height="26.6"/>
	<rect x="559.8" y="693" class="st2" width="26.6" height="26.6"/>
	<rect x="559.8" y="666.3" class="st2" width="26.6" height="26.6"/>
	<rect x="559.8" y="639.7" class="st2" width="26.6" height="26.6"/>
	<rect x="559.8" y="613.1" class="st3" width="26.6" height="26.6"/>
	<rect x="559.8" y="586.4" class="st3" width="26.6" height="26.6"/>
	<rect x="559.8" y="559.8" class="st3" width="26.6" height="26.6"/>
	<rect x="559.8" y="533.2" class="st3" width="26.6" height="26.6"/>
	<rect x="559.8" y="506.5" class="st2" width="26.6" height="26.6"/>
	<rect x="559.8" y="479.9" class="st2" width="26.6" height="26.6"/>
	<rect x="559.8" y="453.3" class="st2" width="26.6" height="26.6"/>
	<rect x="559.8" y="426.6" class="st1" width="26.6" height="26.6"/>
	<rect x="559.8" y="400" class="st2" width="26.6" height="26.6"/>
	<rect x="559.8" y="373.4" class="st1" width="26.6" height="26.6"/>
	<line class="st0" x1="533.2" y1="746.2" x2="559.8" y2="746.2"/>
	<rect x="533.2" y="719.6" class="st1" width="26.6" height="26.6"/>
	<rect x="533.2" y="693" class="st2" width="26.6" height="26.6"/>
	<rect x="533.2" y="666.3" class="st2" width="26.6" height="26.6"/>
	<rect x="533.2" y="639.7" class="st2" width="26.6" height="26.6"/>
	<rect x="533.2" y="613.1" class="st3" width="26.6" height="26.6"/>
	<rect x="533.2" y="586.4" class="st3" width="26.6" height="26.6"/>
	<rect x="533.2" y="559.8" class="st3" width="26.6" height="26.6"/>
	<rect x="533.2" y="533.2" class="st3" width="26.6" height="26.6"/>
	<rect x="533.2" y="506.5" class="st2" width="26.6" height="26.6"/>
	<rect x="533.2" y="479.9" class="st2" width="26.6" height="26.6"/>
	<rect x="533.2" y="453.3" class="st2" width="26.6" height="26.6"/>
	<rect x="533.2" y="426.6" class="st1" width="26.6" height="26.6"/>
	<rect x="533.2" y="400" class="st2" width="26.6" height="26.6"/>
	<rect x="533.2" y="373.4" class="st1" width="26.6" height="26.6"/>
	<line class="st0" x1="506.5" y1="746.2" x2="533.2" y2="746.2"/>
	<rect x="506.5" y="719.6" class="st1" width="26.6" height="26.6"/>
	<rect x="506.5" y="693" class="st2" width="26.6" height="26.6"/>
	<rect x="506.5" y="666.3" class="st2" width="26.6" height="26.6"/>
	<rect x="506.5" y="639.7" class="st2" width="26.6" height="26.6"/>
	<rect x="506.5" y="613.1" class="st3" width="26.6" height="26.6"/>
	<rect x="506.5" y="586.4" class="st3" width="26.6" height="26.6"/>
	<rect x="506.5" y="559.8" class="st3" width="26.6" height="26.6"/>
	<rect x="506.5" y="533.2" class="st3" width="26.6" height="26.6"/>
	<rect x="506.5" y="506.5" class="st2" width="26.6" height="26.6"/>
	<rect x="506.5" y="479.9" class="st2" width="26.6" height="26.6"/>
	<rect x="506.5" y="453.3" class="st2" width="26.6" height="26.6"/>
	<rect x="506.5" y="426.6" class="st1" width="26.6" height="26.6"/>
	<rect x="506.5" y="400" class="st2" width="26.6" height="26.6"/>
	<rect x="506.5" y="373.4" class="st1" width="26.6" height="26.6"/>
	<line class="st0" x1="479.9" y1="746.2" x2="506.5" y2="746.2"/>
	<rect x="479.9" y="719.6" class="st1" width="26.6" height="26.6"/>
	<rect x="479.9" y="693" class="st2" width="26.6" height="26.6"/>
	<rect x="479.9" y="666.3" class="st2" width="26.6" height="26.6"/>
	<rect x="479.9" y="639.7" class="st2" width="26.6" height="26.6"/>
	<rect x="479.9" y="613.1" class="st3" width="26.6" height="26.6"/>
	<rect x="479.9" y="586.4" class="st3" width="26.6" height="26.6"/>
	<rect x="479.9" y="559.8" class="st3" width="26.6" height="26.6"/>
	<rect x="479.9" y="533.2" class="st3" width="26.6" height="26.6"/>
	<rect x="479.9" y="506.5" class="st2" width="26.6" height="26.6"/>
	<rect x="479.9" y="479.9" class="st2" width="26.6" height="26.6"/>
	<rect x="479.9" y="453.3" class="st2" width="26.6" height="26.6"/>
	<rect x="479.9" y="426.6" class="st1" width="26.6" height="26.6"/>
	<rect x="479.9" y="400" class="st2" width="26.6" height="26.6"/>
	<rect x="479.9" y="373.4" class="st1" width="26.6" height="26.6"/>
	<line class="st0" x1="453.3" y1="746.2" x2="479.9" y2="746.2"/>
	<rect x="453.3" y="719.6" class="st1" width="26.6" height="26.6"/>
	<rect x="453.3" y="693" class="st2" width="26.6" height="26.6"/>
	<rect x="453.3" y="666.3" class="st2" width="26.6" height="26.6"/>
	<rect x="453.3" y="639.7" class="st2" width="26.6" height="26.6"/>
	<rect x="453.3" y="613.1" class="st3" width="26.6" height="26.6"/>
	<rect x="453.3" y="586.4" class="st3" width="26.6" height="26.6"/>
	<rect x="453.3" y="559.8" class="st3" width="26.6" height="26.6"/>
	<rect x="453.3" y="533.2" class="st3" width="26.6" height="26.6"/>
	<rect x="453.3" y="506.5" class="st2" width="26.6" height="26.6"/>
	<rect x="453.3" y="479.9" class="st2" width="26.6" height="26.6"/>
	<rect x="453.3" y="453.3" class="st2" width="26.6" height="26.6"/>
	<rect x="453.3" y="426.6" class="st1" width="26.6" height="26.6"/>
	<rect x="453.3" y="400" class="st2" width="26.6" height="26.6"/>
	<rect x="453.3" y="373.4" class="st2" width="26.6" height="26.6"/>
	<rect x="453.3" y="346.7" class="st1" width="26.6" height="26.6"/>
	<line class="st0" x1="426.6" y1="746.2" x2="453.3" y2="746.2"/>
	<rect x="426.6" y="719.6" class="st1" width="26.6" height="26.6"/>
	<rect x="426.6" y="693" class="st2" width="26.6" height="26.6"/>
	<rect x="426.6" y="666.3" class="st2" width="26.6" height="26.6"/>
	<rect x="426.6" y="639.7" class="st2" width="26.6" height="26.6"/>
	<rect x="426.6" y="613.1" class="st3" width="26.6" height="26.6"/>
	<rect x="426.6" y="586.4" class="st3" width="26.6" height="26.6"/>
	<rect x="426.6" y="559.8" class="st3" width="26.6" height="26.6"/>
	<rect x="426.6" y="533.2" class="st3" width="26.6" height="26.6"/>
	<rect x="426.6" y="506.5" class="st2" width="26.6" height="26.6"/>
	<rect x="426.6" y="479.9" class="st2" width="26.6" height="26.6"/>
	<rect x="426.6" y="453.3" class="st2" width="26.6" height="26.6"/>
	<rect x="426.6" y="426.6" class="st1" width="26.6" height="26.6"/>
	<rect x="426.6" y="400" class="st2" width="26.6" height="26.6"/>
	<rect x="426.6" y="373.4" class="st2" width="26.6" height="26.6"/>
	<rect x="426.6" y="346.7" class="st1" width="26.6" height="26.6"/>
	<line class="st0" x1="400" y1="746.2" x2="426.6" y2="746.2"/>
	<rect x="400" y="719.6" class="st1" width="26.6" height="26.6"/>
	<rect x="400" y="693" class="st2" width="26.6" height="26.6"/>
	<rect x="400" y="666.3" class="st2" width="26.6" height="26.6"/>
	<rect x="400" y="639.7" class="st2" width="26.6" height="26.6"/>
	<rect x="400" y="613.1" class="st3" width="26.6" height="26.6"/>
	<rect x="400" y="586.4" class="st3" width="26.6" height="26.6"/>
	<rect x="400" y="559.8" class="st3" width="26.6" height="26.6"/>
	<rect x="400" y="533.2" class="st3" width="26.6" height="26.6"/>
	<rect x="400" y="506.5" class="st2" width="26.6" height="26.6"/>
	<rect x="400" y="479.9" class="st2" width="26.6" height="26.6"/>
	<rect x="400" y="453.3" class="st2" width="26.6" height="26.6"/>
	<rect x="400" y="426.6" class="st1" width="26.6" height="26.6"/>
	<rect x="400" y="400" class="st2" width="26.6" height="26.6"/>
	<rect x="400" y="373.4" class="st2" width="26.6" height="26.6"/>
	<rect x="400" y="346.7" class="st1" width="26.6" height="26.6"/>
	<line class="st0" x1="373.4" y1="746.2" x2="400" y2="746.2"/>
	<rect x="373.4" y="719.6" class="st1" width="26.6" height="26.6"/>
	<rect x="373.4" y="693" class="st2" width="26.6" height="26.6"/>
	<rect x="373.4" y="666.3" class="st2" width="26.6" height="26.6"/>
	<rect x="373.4" y="639.7" class="st2" width="26.6" height="26.6"/>
	<rect x="373.4" y="613.1" class="st3" width="26.6" height="26.6"/>
	<rect x="373.4" y="586.4" class="st3" width="26.6" height="26.6"/>
	<rect x="373.4" y="559.8" class="st3" width="26.6" height="26.6"/>
	<rect x="373.4" y="533.2" class="st3" width="26.6" height="26.6"/>
	<rect x="373.4" y="506.5" class="st2" width="26.6" height="26.6"/>
	<rect x="373.4" y="479.9" class="st2" width="26.6" height="26.6"/>
	<rect x="373.4" y="453.3" class="st2" width="26.6" height="26.6"/>
	<rect x="373.4" y="426.6" class="st1" width="26.6" height="26.6"/>
	<rect x="373.4" y="400" class="st2" width="26.6" height="26.6"/>
	<rect x="373.4" y="373.4" class="st2" width="26.6" height="26.6"/>
	<rect x="373.4" y="346.7" class="st1" width="26.6" height="26.6"/>
	<line class="st0" x1="346.7" y1="746.2" x2="373.4" y2="746.2"/>
	<rect x="346.7" y="719.6" class="st1" width="26.6" height="26.6"/>
	<rect x="346.7" y="693" class="st2" width="26.6" height="26.6"/>
	<rect x="346.7" y="666.3" class="st2" width="26.6" height="26.6"/>
	<rect x="346.7" y="639.7" class="st2" width="26.6" height="26.6"/>
	<rect x="346.7" y="613.1" class="st3" width="26.6" height="26.6"/>
	<rect x="346.7" y="586.4" class="st3" width="26.6" height="26.6"/>
	<rect x="346.7" y="559.8" class="st3" width="26.6" height="26.6"/>
	<rect x="346.7" y="533.2" class="st3" width="26.6" height="26.6"/>
	<rect x="346.7" y="506.5" class="st2" width="26.6" height="26.6"/>
	<rect x="346.7" y="479.9" class="st2" width="26.6" height="26.6"/>
	<rect x="346.7" y="453.3" class="st2" width="26.6" height="26.6"/>
	<rect x="346.7" y="426.6" class="st1" width="26.6" height="26.6"/>
	<rect x="346.7" y="400" class="st2" width="26.6" height="26.6"/>
	<rect x="346.7" y="373.4" class="st1" width="26.6" height="26.6"/>
	<rect x="346.7" y="346.7" class="st1" width="26.6" height="26.6"/>
	<rect x="346.7" y="320.1" class="st1" width="26.6" height="26.6"/>
	<rect x="346.7" y="293.5" class="st1" width="26.6" height="26.6"/>
	<rect x="346.7" y="266.8" class="st1" width="26.6" height="26.6"/>
	<line class="st0" x1="320.1" y1="746.2" x2="346.7" y2="746.2"/>
	<rect x="320.1" y="719.6" class="st1" width="26.6" height="26.6"/>
	<rect x="320.1" y="693" class="st2" width="26.6" height="26.6"/>
	<rect x="320.1" y="666.3" class="st2" width="26.6" height="26.6"/>
	<rect x="320.1" y="639.7" class="st2" width="26.6" height="26.6"/>
	<rect x="320.1" y="613.1" class="st3" width="26.6" height="26.6"/>
	<rect x="320.1" y="586.4" class="st3" width="26.6" height="26.6"/>
	<rect x="320.1" y="559.8" class="st3" width="26.6" height="26.6"/>
	<rect x="320.1" y="533.2" class="st3" width="26.6" height="26.6"/>
	<rect x="320.1" y="506.5" class="st2" width="26.6" height="26.6"/>
	<rect x="320.1" y="479.9" class="st2" width="26.6" height="26.6"/>
	<rect x="320.1" y="453.3" class="st2" width="26.6" height="26.6"/>
	<rect x="320.1" y="426.6" class="st1" width="26.6" height="26.6"/>
	<rect x="320.1" y="400" class="st2" width="26.6" height="26.6"/>
	<rect x="320.1" y="373.4" class="st1" width="26.6" height="26.6"/>
	<rect x="320.1" y="346.7" class="st3" width="26.6" height="26.6"/>
	<rect x="320.1" y="320.1" class="st3" width="26.6" height="26.6"/>
	<rect x="320.1" y="293.5" class="st3" width="26.6" height="26.6"/>
	<rect x="320.1" y="266.8" class="st3" width="26.6" height="26.6"/>
	<rect x="320.1" y="240.2" class="st1" width="26.6" height="26.6"/>
	<line class="st0" x1="346.7" y1="240.2" x2="320.1" y2="240.2"/>
	<line class="st0" x1="293.5" y1="746.2" x2="320.1" y2="746.2"/>
	<rect x="293.5" y="719.6" class="st1" width="26.6" height="26.6"/>
	<rect x="293.5" y="693" class="st2" width="26.6" height="26.6"/>
	<rect x="293.5" y="666.3" class="st2" width="26.6" height="26.6"/>
	<rect x="293.5" y="639.7" class="st2" width="26.6" height="26.6"/>
	<rect x="293.5" y="613.1" class="st3" width="26.6" height="26.6"/>
	<rect x="293.5" y="586.4" class="st3" width="26.6" height="26.6"/>
	<rect x="293.5" y="559.8" class="st3" width="26.6" height="26.6"/>
	<rect x="293.5" y="533.2" class="st3" width="26.6" height="26.6"/>
	<rect x="293.5" y="506.5" class="st2" width="26.6" height="26.6"/>
	<rect x="293.5" y="479.9" class="st2" width="26.6" height="26.6"/>
	<rect x="293.5" y="453.3" class="st2" width="26.6" height="26.6"/>
	<rect x="293.5" y="426.6" class="st1" width="26.6" height="26.6"/>
	<rect x="293.5" y="400" class="st2" width="26.6" height="26.6"/>
	<rect x="293.5" y="373.4" class="st1" width="26.6" height="26.6"/>
	<rect x="293.5" y="346.7" class="st3" width="26.6" height="26.6"/>
	<rect x="293.5" y="320.1" class="st3" width="26.6" height="26.6"/>
	<rect x="293.5" y="293.5" class="st3" width="26.6" height="26.6"/>
	<rect x="293.5" y="266.8" class="st3" width="26.6" height="26.6"/>
	<rect x="293.5" y="240.2" class="st1" width="26.6" height="26.6"/>
	<line class="st0" x1="320.1" y1="240.2" x2="293.5" y2="240.2"/>
	<line class="st0" x1="266.8" y1="746.2" x2="293.5" y2="746.2"/>
	<rect x="266.8" y="719.6" class="st1" width="26.6" height="26.6"/>
	<rect x="266.8" y="693" class="st2" width="26.6" height="26.6"/>
	<rect x="266.8" y="666.3" class="st2" width="26.6" height="26.6"/>
	<rect x="266.8" y="639.7" class="st2" width="26.6" height="26.6"/>
	<rect x="266.8" y="613.1" class="st3" width="26.6" height="26.6"/>
	<rect x="266.8" y="586.4" class="st3" width="26.6" height="26.6"/>
	<rect x="266.8" y="559.8" class="st3" width="26.6" height="26.6"/>
	<rect x="266.8" y="533.2" class="st3" width="26.6" height="26.6"/>
	<rect x="266.8" y="506.5" class="st2" width="26.6" height="26.6"/>
	<rect x="266.8" y="479.9" class="st2" width="26.6" height="26.6"/>
	<rect x="266.8" y="453.3" class="st2" width="26.6" height="26.6"/>
	<rect x="266.8" y="426.6" class="st1" width="26.6" height="26.6"/>
	<rect x="266.8" y="400" class="st2" width="26.6" height="26.6"/>
	<rect x="266.8" y="373.4" class="st1" width="26.6" height="26.6"/>
	<rect x="266.8" y="346.7" class="st3" width="26.6" height="26.6"/>
	<rect x="266.8" y="320.1" class="st3" width="26.6" height="26.6"/>
	<rect x="266.8" y="293.5" class="st3" width="26.6" height="26.6"/>
	<rect x="266.8" y="266.8" class="st1" width="26.6" height="26.6"/>
	<line class="st0" x1="240.2" y1="746.2" x2="266.8" y2="746.2"/>
	<rect x="240.2" y="719.6" class="st1" width="26.6" height="26.6"/>
	<rect x="240.2" y="693" class="st2" width="26.6" height="26.6"/>
	<rect x="240.2" y="666.3" class="st2" width="26.6" height="26.6"/>
	<rect x="240.2" y="639.7" class="st2" width="26.6" height="26.6"/>
	<rect x="240.2" y="613.1" class="st3" width="26.6" height="26.6"/>
	<rect x="240.2" y="586.4" class="st3" width="26.6" height="26.6"/>
	<rect x="240.2" y="559.8" class="st3" width="26.6" height="26.6"/>
	<rect x="240.2" y="533.2" class="st3" width="26.6" height="26.6"/>
	<rect x="240.2" y="506.5" class="st2" width="26.6" height="26.6"/>
	<rect x="240.2" y="479.9" class="st2" width="26.6" height="26.6"/>
	<rect x="240.2" y="453.3" class="st2" width="26.6" height="26.6"/>
	<rect x="240.2" y="426.6" class="st2" width="26.6" height="26.6"/>
	<rect x="240.2" y="400" class="st1" width="26.6" height="26.6"/>
	<rect x="240.2" y="373.4" class="st2" width="26.6" height="26.6"/>
	<rect x="240.2" y="346.7" class="st1" width="26.6" height="26.6"/>
	<rect x="240.2" y="320.1" class="st1" width="26.6" height="26.6"/>
	<rect x="240.2" y="293.5" class="st1" width="26.6" height="26.6"/>
	<line class="st0" x1="213.6" y1="746.2" x2="240.2" y2="746.2"/>
	<rect x="213.6" y="719.6" class="st1" width="26.6" height="26.6"/>
	<rect x="213.6" y="693" class="st2" width="26.6" height="26.6"/>
	<rect x="213.6" y="666.3" class="st2" width="26.6" height="26.6"/>
	<rect x="213.6" y="639.7" class="st2" width="26.6" height="26.6"/>
	<rect x="213.6" y="613.1" class="st3" width="26.6" height="26.6"/>
	<rect x="213.6" y="586.4" class="st3" width="26.6" height="26.6"/>
	<rect x="213.6" y="559.8" class="st3" width="26.6" height="26.6"/>
	<rect x="213.6" y="533.2" class="st3" width="26.6" height="26.6"/>
	<rect x="213.6" y="506.5" class="st2" width="26.6" height="26.6"/>
	<rect x="213.6" y="479.9" class="st2" width="26.6" height="26.6"/>
	<rect x="213.6" y="453.3" class="st2" width="26.6" height="26.6"/>
	<rect x="213.6" y="426.6" class="st2" width="26.6" height="26.6"/>
	<rect x="213.6" y="400" class="st1" width="26.6" height="26.6"/>
	<rect x="213.6" y="373.4" class="st2" width="26.6" height="26.6"/>
	<rect x="213.6" y="346.7" class="st2" width="26.6" height="26.6"/>
	<rect x="213.6" y="320.1" class="st1" width="26.6" height="26.6"/>
	<line class="st0" x1="186.9" y1="746.2" x2="213.6" y2="746.2"/>
	<rect x="186.9" y="719.6" class="st1" width="26.6" height="26.6"/>
	<rect x="186.9" y="693" class="st2" width="26.6" height="26.6"/>
	<rect x="186.9" y="666.3" class="st2" width="26.6" height="26.6"/>
	<rect x="186.9" y="639.7" class="st2" width="26.6" height="26.6"/>
	<rect x="186.9" y="613.1" class="st3" width="26.6" height="26.6"/>
	<rect x="186.9" y="586.4" class="st3" width="26.6" height="26.6"/>
	<rect x="186.9" y="559.8" class="st3" width="26.6" height="26.6"/>
	<rect x="186.9" y="533.2" class="st3" width="26.6" height="26.6"/>
	<rect x="186.9" y="506.5" class="st2" width="26.6" height="26.6"/>
	<rect x="186.9" y="479.9" class="st2" width="26.6" height="26.6"/>
	<rect x="186.9" y="453.3" class="st2" width="26.6" height="26.6"/>
	<rect x="186.9" y="426.6" class="st2" width="26.6" height="26.6"/>
	<rect x="186.9" y="400" class="st1" width="26.6" height="26.6"/>
	<rect x="186.9" y="373.4" class="st2" width="26.6" height="26.6"/>
	<rect x="186.9" y="346.7" class="st1" width="26.6" height="26.6"/>
	<line class="st0" x1="160.3" y1="746.2" x2="186.9" y2="746.2"/>
	<rect x="160.3" y="719.6" class="st1" width="26.6" height="26.6"/>
	<rect x="160.3" y="693" class="st2" width="26.6" height="26.6"/>
	<rect x="160.3" y="666.3" class="st2" width="26.6" height="26.6"/>
	<rect x="160.3" y="639.7" class="st2" width="26.6" height="26.6"/>
	<rect x="160.3" y="613.1" class="st3" width="26.6" height="26.6"/>
	<rect x="160.3" y="586.4" class="st3" width="26.6" height="26.6"/>
	<rect x="160.3" y="559.8" class="st3" width="26.6" height="26.6"/>
	<rect x="160.3" y="533.2" class="st3" width="26.6" height="26.6"/>
	<rect x="160.3" y="506.5" class="st2" width="26.6" height="26.6"/>
	<rect x="160.3" y="479.9" class="st2" width="26.6" height="26.6"/>
	<rect x="160.3" y="453.3" class="st2" width="26.6" height="26.6"/>
	<rect x="160.3" y="426.6" class="st2" width="26.6" height="26.6"/>
	<rect x="160.3" y="400" class="st1" width="26.6" height="26.6"/>
	<rect x="160.3" y="373.4" class="st2" width="26.6" height="26.6"/>
	<rect x="160.3" y="346.7" class="st1" width="26.6" height="26.6"/>
	<line class="st0" x1="133.7" y1="746.2" x2="160.3" y2="746.2"/>
	<rect x="133.7" y="719.6" class="st1" width="26.6" height="26.6"/>
	<rect x="133.7" y="693" class="st2" width="26.6" height="26.6"/>
	<rect x="133.7" y="666.3" class="st2" width="26.6" height="26.6"/>
	<rect x="133.7" y="639.7" class="st2" width="26.6" height="26.6"/>
	<rect x="133.7" y="613.1" class="st3" width="26.6" height="26.6"/>
	<rect x="133.7" y="586.4" class="st3" width="26.6" height="26.6"/>
	<rect x="133.7" y="559.8" class="st3" width="26.6" height="26.6"/>
	<rect x="133.7" y="533.2" class="st3" width="26.6" height="26.6"/>
	<rect x="133.7" y="506.5" class="st2" width="26.6" height="26.6"/>
	<rect x="133.7" y="479.9" class="st2" width="26.6" height="26.6"/>
	<rect x="133.7" y="453.3" class="st2" width="26.6" height="26.6"/>
	<rect x="133.7" y="426.6" class="st2" width="26.6" height="26.6"/>
	<rect x="133.7" y="400" class="st1" width="26.6" height="26.6"/>
	<rect x="133.7" y="373.4" class="st1" width="26.6" height="26.6"/>
	<line class="st0" x1="107" y1="746.2" x2="133.7" y2="746.2"/>
	<rect x="107" y="719.6" class="st1" width="26.6" height="26.6"/>
	<rect x="107" y="693" class="st2" width="26.6" height="26.6"/>
	<rect x="107" y="666.3" class="st2" width="26.6" height="26.6"/>
	<rect x="107" y="639.7" class="st2" width="26.6" height="26.6"/>
	<rect x="107" y="613.1" class="st3" width="26.6" height="26.6"/>
	<rect x="107" y="586.4" class="st3" width="26.6" height="26.6"/>
	<rect x="107" y="559.8" class="st3" width="26.6" height="26.6"/>
	<rect x="107" y="533.2" class="st3" width="26.6" height="26.6"/>
	<rect x="107" y="506.5" class="st2" width="26.6" height="26.6"/>
	<rect x="107" y="479.9" class="st2" width="26.6" height="26.6"/>
	<rect x="107" y="453.3" class="st2" width="26.6" height="26.6"/>
	<rect x="107" y="426.6" class="st2" width="26.6" height="26.6"/>
	<rect x="107" y="400" class="st1" width="26.6" height="26.6"/>
	<rect x="107" y="373.4" class="st1" width="26.6" height="26.6"/>
	<line class="st0" x1="133.7" y1="373.4" x2="107" y2="373.4"/>
	<line class="st0" x1="80.4" y1="746.2" x2="107" y2="746.2"/>
	<rect x="80.4" y="719.6" class="st1" width="26.6" height="26.6"/>
	<rect x="80.4" y="693" class="st1" width="26.6" height="26.6"/>
	<rect x="80.4" y="666.3" class="st1" width="26.6" height="26.6"/>
	<rect x="80.4" y="639.7" class="st1" width="26.6" height="26.6"/>
	<rect x="80.4" y="613.1" class="st1" width="26.6" height="26.6"/>
	<rect x="80.4" y="586.4" class="st1" width="26.6" height="26.6"/>
	<rect x="80.4" y="559.8" class="st1" width="26.6" height="26.6"/>
	<rect x="80.4" y="533.2" class="st1" width="26.6" height="26.6"/>
	<rect x="80.4" y="506.5" class="st1" width="26.6" height="26.6"/>
	<rect x="80.4" y="479.9" class="st1" width="26.6" height="26.6"/>
	<rect x="80.4" y="453.3" class="st1" width="26.6" height="26.6"/>
	<rect x="80.4" y="426.6" class="st1" width="26.6" height="26.6"/>
	<rect x="80.4" y="400" class="st1" width="26.6" height="26.6"/>
	<path class="st0" d="M80.4,746.2"/>
	<line class="st0" x1="80.4" y1="719.6" x2="80.4" y2="746.2"/>
	<line class="st0" x1="80.4" y1="693" x2="80.4" y2="719.6"/>
	<line class="st0" x1="80.4" y1="666.3" x2="80.4" y2="693"/>
	<line class="st0" x1="80.4" y1="639.7" x2="80.4" y2="666.3"/>
	<line class="st0" x1="80.4" y1="613.1" x2="80.4" y2="639.7"/>
	<line class="st0" x1="80.4" y1="586.4" x2="80.4" y2="613.1"/>
	<line class="st0" x1="80.4" y1="559.8" x2="80.4" y2="586.4"/>
	<line class="st0" x1="80.4" y1="533.2" x2="80.4" y2="559.8"/>
	<line class="st0" x1="80.4" y1="506.5" x2="80.4" y2="533.2"/>
	<line class="st0" x1="80.4" y1="479.9" x2="80.4" y2="506.5"/>
	<line class="st0" x1="80.4" y1="453.3" x2="80.4" y2="479.9"/>
	<line class="st0" x1="80.4" y1="426.6" x2="80.4" y2="453.3"/>
	<line class="st0" x1="80.4" y1="400" x2="80.4" y2="426.6"/>
</g>
<rect x="107" y="373" class="st1" width="53" height="54"/>
<rect x="80" y="400" class="st1" width="187" height="27"/>
<rect x="80" y="400" class="st1" width="27" height="346"/>
<rect x="80" y="720" class="st1" width="613" height="26"/>
<rect x="693" y="427" class="st1" width="27" height="293"/>
<rect x="613" y="400" class="st1" width="80" height="53"/>
<rect x="267" y="427" class="st1" width="359" height="26"/>
<rect x="480" y="373" class="st1" width="133" height="27"/>
<rect x="347" y="347" class="st1" width="133" height="26"/>
<rect x="347" y="267" class="st1" width="26" height="133"/>
<rect x="267" y="373" class="st1" width="106" height="27"/>
<rect x="240" y="293" class="st1" width="27" height="80"/>
<rect x="214" y="320" class="st1" width="53" height="27"/>
<rect x="293" y="240" class="st1" width="54" height="27"/>
<rect x="293" y="267" class="st3" width="54" height="106"/>
<rect x="267" y="293" class="st3" width="80" height="80"/>
<rect x="107" y="533" class="st3" width="586" height="107"/>
<rect x="107" y="427" class="st2" width="160" height="106"/>
<rect x="249" y="453" class="st2" width="444" height="80"/>
<rect x="107" y="640" class="st2" width="586" height="80"/>
<rect x="160" y="373" class="st2" width="107" height="27"/>
<rect x="373" y="373" class="st2" width="107" height="53"/>
<rect x="267" y="400" class="st2" width="346" height="26"/>
</svg>
