<?xml version="1.0" encoding="utf-8"?>
<!-- Generator: Adobe Illustrator 21.0.0, SVG Export Plug-In . SVG Version: 6.00 Build 0)  -->
<svg version="1.1" xmlns="http://www.w3.org/2000/svg" xmlns:xlink="http://www.w3.org/1999/xlink" x="0px" y="0px"
	 viewBox="0 0 800 800" style="enable-background:new 0 0 800 800;" xml:space="preserve">
<style type="text/css">
	.st0{display:none;}
	.st1{display:inline;fill:#197512;stroke:#000000;stroke-miterlimit:10;}
	.st2{fill:#FFFFFF;}
	.st3{fill:#2E3192;}
</style>
<g id="Layer_2" class="st0">
	<rect x="-23.5" y="-9.5" class="st1" width="866" height="832"/>
</g>
<g id="grid">
	<g>
		<path class="st2" d="M719.6,746.2"/>
		<line class="st2" x1="719.6" y1="746.2" x2="719.6" y2="719.6"/>
		<line class="st2" x1="693" y1="746.2" x2="719.6" y2="746.2"/>
		<rect x="693" y="719.6" class="st3" width="26.6" height="26.6"/>
		<path class="st2" d="M693,746.2"/>
		<line class="st2" x1="693" y1="719.6" x2="693" y2="746.2"/>
		<path class="st2" d="M426.6,746.2"/>
		<line class="st2" x1="426.6" y1="746.2" x2="426.6" y2="719.6"/>
		<line class="st2" x1="426.6" y1="719.6" x2="426.6" y2="693"/>
		<path class="st2" d="M426.6,693"/>
		<line class="st2" x1="400" y1="746.2" x2="426.6" y2="746.2"/>
		<line class="st2" x1="373.4" y1="746.2" x2="400" y2="746.2"/>
		<rect x="373.4" y="719.6" class="st3" width="26.6" height="26.6"/>
		<line class="st2" x1="346.7" y1="746.2" x2="373.4" y2="746.2"/>
		<line class="st2" x1="320.1" y1="746.2" x2="346.7" y2="746.2"/>
		<rect x="320.1" y="719.6" class="st3" width="26.6" height="26.6"/>
		<line class="st2" x1="293.5" y1="746.2" x2="320.1" y2="746.2"/>
		<line class="st2" x1="266.8" y1="746.2" x2="293.5" y2="746.2"/>
		<rect x="266.8" y="719.6" class="st3" width="26.6" height="26.6"/>
		<line class="st2" x1="240.2" y1="746.2" x2="266.8" y2="746.2"/>
		<rect x="240.2" y="719.6" class="st3" width="26.6" height="26.6"/>
		<line class="st2" x1="213.6" y1="746.2" x2="240.2" y2="746.2"/>
		<line class="st2" x1="186.9" y1="746.2" x2="213.6" y2="746.2"/>
		<line class="st2" x1="160.3" y1="746.2" x2="186.9" y2="746.2"/>
		<line class="st2" x1="133.7" y1="746.2" x2="160.3" y2="746.2"/>
		<rect x="133.7" y="719.6" class="st3" width="26.6" height="26.6"/>
		<line class="st2" x1="107" y1="746.2" x2="133.7" y2="746.2"/>
		<rect x="107" y="719.6" class="st3" width="26.6" height="26.6"/>
		<rect x="107" y="693" class="st3" width="26.6" height="26.6"/>
		<line class="st2" x1="133.7" y1="693" x2="107" y2="693"/>
		<line class="st2" x1="80.4" y1="746.2" x2="107" y2="746.2"/>
		<rect x="80.4" y="719.6" class="st3" width="26.6" height="26.6"/>
		<line class="st2" x1="53.8" y1="746.2" x2="80.4" y2="746.2"/>
		<line class="st2" x1="27.1" y1="746.2" x2="53.8" y2="746.2"/>
		<rect x="27.1" y="719.6" class="st3" width="26.6" height="26.6"/>
	</g>
</g>
</svg>
