<?xml version="1.0" encoding="utf-8"?>
<!-- Generator: Adobe Illustrator 21.0.0, SVG Export Plug-In . SVG Version: 6.00 Build 0)  -->
<svg version="1.1" xmlns="http://www.w3.org/2000/svg" xmlns:xlink="http://www.w3.org/1999/xlink" x="0px" y="0px"
	 viewBox="0 0 800 800" style="enable-background:new 0 0 800 800;" xml:space="preserve">
<style type="text/css">
	.st0{display:none;}
	.st1{display:inline;fill:#CC3EBE;stroke:#000000;stroke-miterlimit:10;}
	.st2{fill:#2E3192;}
	.st3{fill:#ED1C24;}
	.st4{fill:#FFC60B;}
</style>
<g id="Layer_2" class="st0">
	<rect x="-59.5" y="-9.5" class="st1" width="882" height="836"/>
</g>
<g id="grid">
	<g>
		<rect x="693" y="719.6" class="st2" width="26.6" height="26.6"/>
		<rect x="613.1" y="719.6" class="st2" width="26.6" height="26.6"/>
		<rect x="586.4" y="719.6" class="st2" width="26.6" height="26.6"/>
		<rect x="559.8" y="719.6" class="st2" width="26.6" height="26.6"/>
		<rect x="559.8" y="693" class="st2" width="26.6" height="26.6"/>
		<rect x="559.8" y="666.3" class="st2" width="26.6" height="26.6"/>
		<rect x="559.8" y="639.7" class="st2" width="26.6" height="26.6"/>
		<rect x="533.2" y="719.6" class="st2" width="26.6" height="26.6"/>
		<rect x="533.2" y="693" class="st3" width="26.6" height="26.6"/>
		<rect x="533.2" y="666.3" class="st3" width="26.6" height="26.6"/>
		<rect x="533.2" y="639.7" class="st2" width="26.6" height="26.6"/>
		<rect x="533.2" y="613.1" class="st2" width="26.6" height="26.6"/>
		<rect x="506.5" y="719.6" class="st2" width="26.6" height="26.6"/>
		<rect x="506.5" y="693" class="st3" width="26.6" height="26.6"/>
		<rect x="506.5" y="666.3" class="st3" width="26.6" height="26.6"/>
		<rect x="506.5" y="639.7" class="st3" width="26.6" height="26.6"/>
		<rect x="506.5" y="613.1" class="st2" width="26.6" height="26.6"/>
		<rect x="479.9" y="719.6" class="st2" width="26.6" height="26.6"/>
		<rect x="479.9" y="693" class="st3" width="26.6" height="26.6"/>
		<rect x="479.9" y="666.3" class="st3" width="26.6" height="26.6"/>
		<rect x="479.9" y="639.7" class="st3" width="26.6" height="26.6"/>
		<rect x="479.9" y="613.1" class="st2" width="26.6" height="26.6"/>
		<rect x="453.3" y="719.6" class="st2" width="26.6" height="26.6"/>
		<rect x="453.3" y="693" class="st3" width="26.6" height="26.6"/>
		<rect x="453.3" y="666.3" class="st3" width="26.6" height="26.6"/>
		<rect x="453.3" y="639.7" class="st3" width="26.6" height="26.6"/>
		<rect x="453.3" y="613.1" class="st2" width="26.6" height="26.6"/>
		<rect x="426.6" y="719.6" class="st2" width="26.6" height="26.6"/>
		<rect x="426.6" y="693" class="st2" width="26.6" height="26.6"/>
		<rect x="426.6" y="666.3" class="st2" width="26.6" height="26.6"/>
		<rect x="426.6" y="639.7" class="st2" width="26.6" height="26.6"/>
		<rect x="373.4" y="719.6" class="st2" width="26.6" height="26.6"/>
		<rect x="373.4" y="693" class="st2" width="26.6" height="26.6"/>
		<rect x="373.4" y="666.3" class="st2" width="26.6" height="26.6"/>
		<rect x="346.7" y="719.6" class="st2" width="26.6" height="26.6"/>
		<rect x="346.7" y="693" class="st4" width="26.6" height="26.6"/>
		<rect x="346.7" y="666.3" class="st2" width="26.6" height="26.6"/>
		<rect x="346.7" y="639.7" class="st2" width="26.6" height="26.6"/>
		<rect x="346.7" y="613.1" class="st2" width="26.6" height="26.6"/>
		<rect x="346.7" y="586.4" class="st2" width="26.6" height="26.6"/>
		<rect x="320.1" y="719.6" class="st2" width="26.6" height="26.6"/>
		<rect x="320.1" y="693" class="st4" width="26.6" height="26.6"/>
		<rect x="320.1" y="666.3" class="st4" width="26.6" height="26.6"/>
		<rect x="320.1" y="639.7" class="st4" width="26.6" height="26.6"/>
		<rect x="320.1" y="613.1" class="st2" width="26.6" height="26.6"/>
		<rect x="320.1" y="586.4" class="st3" width="26.6" height="26.6"/>
		<rect x="320.1" y="559.8" class="st2" width="26.6" height="26.6"/>
		<rect x="293.5" y="719.6" class="st2" width="26.6" height="26.6"/>
		<rect x="293.5" y="693" class="st4" width="26.6" height="26.6"/>
		<rect x="293.5" y="666.3" class="st4" width="26.6" height="26.6"/>
		<rect x="293.5" y="639.7" class="st4" width="26.6" height="26.6"/>
		<rect x="293.5" y="613.1" class="st3" width="26.6" height="26.6"/>
		<rect x="293.5" y="586.4" class="st2" width="26.6" height="26.6"/>
		<rect x="293.5" y="559.8" class="st3" width="26.6" height="26.6"/>
		<rect x="293.5" y="533.2" class="st2" width="26.6" height="26.6"/>
		<rect x="266.8" y="719.6" class="st2" width="26.6" height="26.6"/>
		<rect x="266.8" y="693" class="st4" width="26.6" height="26.6"/>
		<rect x="266.8" y="666.3" class="st4" width="26.6" height="26.6"/>
		<rect x="266.8" y="639.7" class="st4" width="26.6" height="26.6"/>
		<rect x="266.8" y="613.1" class="st3" width="26.6" height="26.6"/>
		<rect x="266.8" y="586.4" class="st2" width="26.6" height="26.6"/>
		<rect x="266.8" y="559.8" class="st3" width="26.6" height="26.6"/>
		<rect x="266.8" y="533.2" class="st2" width="26.6" height="26.6"/>
		<rect x="240.2" y="719.6" class="st2" width="26.6" height="26.6"/>
		<rect x="240.2" y="693" class="st4" width="26.6" height="26.6"/>
		<rect x="240.2" y="666.3" class="st4" width="26.6" height="26.6"/>
		<rect x="240.2" y="639.7" class="st4" width="26.6" height="26.6"/>
		<rect x="240.2" y="613.1" class="st3" width="26.6" height="26.6"/>
		<rect x="240.2" y="586.4" class="st2" width="26.6" height="26.6"/>
		<rect x="240.2" y="559.8" class="st3" width="26.6" height="26.6"/>
		<rect x="240.2" y="533.2" class="st2" width="26.6" height="26.6"/>
		<rect x="213.6" y="719.6" class="st2" width="26.6" height="26.6"/>
		<rect x="213.6" y="693" class="st4" width="26.6" height="26.6"/>
		<rect x="213.6" y="666.3" class="st4" width="26.6" height="26.6"/>
		<rect x="213.6" y="639.7" class="st4" width="26.6" height="26.6"/>
		<rect x="213.6" y="613.1" class="st3" width="26.6" height="26.6"/>
		<rect x="213.6" y="586.4" class="st3" width="26.6" height="26.6"/>
		<rect x="213.6" y="559.8" class="st2" width="26.6" height="26.6"/>
		<rect x="213.6" y="533.2" class="st2" width="26.6" height="26.6"/>
		<rect x="186.9" y="719.6" class="st2" width="26.6" height="26.6"/>
		<rect x="186.9" y="693" class="st4" width="26.6" height="26.6"/>
		<rect x="186.9" y="666.3" class="st4" width="26.6" height="26.6"/>
		<rect x="186.9" y="639.7" class="st4" width="26.6" height="26.6"/>
		<rect x="186.9" y="613.1" class="st3" width="26.6" height="26.6"/>
		<rect x="186.9" y="586.4" class="st3" width="26.6" height="26.6"/>
		<rect x="186.9" y="559.8" class="st2" width="26.6" height="26.6"/>
		<rect x="186.9" y="533.2" class="st2" width="26.6" height="26.6"/>
		<rect x="160.3" y="719.6" class="st2" width="26.6" height="26.6"/>
		<rect x="160.3" y="693" class="st4" width="26.6" height="26.6"/>
		<rect x="160.3" y="666.3" class="st4" width="26.6" height="26.6"/>
		<rect x="160.3" y="639.7" class="st4" width="26.6" height="26.6"/>
		<rect x="160.3" y="613.1" class="st3" width="26.6" height="26.6"/>
		<rect x="160.3" y="586.4" class="st3" width="26.6" height="26.6"/>
		<rect x="160.3" y="559.8" class="st3" width="26.6" height="26.6"/>
		<rect x="160.3" y="533.2" class="st3" width="26.6" height="26.6"/>
		<rect x="160.3" y="506.5" class="st2" width="26.6" height="26.6"/>
		<rect x="133.7" y="719.6" class="st2" width="26.6" height="26.6"/>
		<rect x="133.7" y="693" class="st4" width="26.6" height="26.6"/>
		<rect x="133.7" y="666.3" class="st4" width="26.6" height="26.6"/>
		<rect x="133.7" y="639.7" class="st4" width="26.6" height="26.6"/>
		<rect x="133.7" y="613.1" class="st3" width="26.6" height="26.6"/>
		<rect x="133.7" y="586.4" class="st3" width="26.6" height="26.6"/>
		<rect x="133.7" y="559.8" class="st3" width="26.6" height="26.6"/>
		<rect x="133.7" y="533.2" class="st3" width="26.6" height="26.6"/>
		<rect x="133.7" y="506.5" class="st2" width="26.6" height="26.6"/>
		<rect x="107" y="719.6" class="st2" width="26.6" height="26.6"/>
		<rect x="107" y="693" class="st4" width="26.6" height="26.6"/>
		<rect x="107" y="666.3" class="st4" width="26.6" height="26.6"/>
		<rect x="107" y="639.7" class="st4" width="26.6" height="26.6"/>
		<rect x="107" y="613.1" class="st3" width="26.6" height="26.6"/>
		<rect x="107" y="586.4" class="st3" width="26.6" height="26.6"/>
		<rect x="107" y="559.8" class="st3" width="26.6" height="26.6"/>
		<rect x="107" y="533.2" class="st3" width="26.6" height="26.6"/>
		<rect x="107" y="506.5" class="st2" width="26.6" height="26.6"/>
		<rect x="80.4" y="719.6" class="st2" width="26.6" height="26.6"/>
		<rect x="80.4" y="693" class="st2" width="26.6" height="26.6"/>
		<rect x="80.4" y="666.3" class="st2" width="26.6" height="26.6"/>
		<rect x="80.4" y="639.7" class="st2" width="26.6" height="26.6"/>
		<rect x="80.4" y="613.1" class="st2" width="26.6" height="26.6"/>
		<rect x="80.4" y="586.4" class="st2" width="26.6" height="26.6"/>
		<rect x="80.4" y="559.8" class="st2" width="26.6" height="26.6"/>
		<rect x="80.4" y="533.2" class="st2" width="26.6" height="26.6"/>
		<rect x="27.1" y="719.6" class="st2" width="26.6" height="26.6"/>
	</g>
</g>
</svg>
