<?xml version="1.0" encoding="utf-8"?>
<!-- Generator: Adobe Illustrator 21.0.0, SVG Export Plug-In . SVG Version: 6.00 Build 0)  -->
<svg version="1.1" xmlns="http://www.w3.org/2000/svg" xmlns:xlink="http://www.w3.org/1999/xlink" x="0px" y="0px"
	 viewBox="0 0 800 800" style="enable-background:new 0 0 800 800;" xml:space="preserve">
<style type="text/css">
	.st0{display:none;}
	.st1{display:inline;fill:#D30ADD;stroke:#000000;stroke-miterlimit:10;}
	.st2{fill:#FFFFFF;}
	.st3{fill:#2E3192;}
	.st4{fill:#ED1C24;}
</style>
<g id="Layer_2" class="st0">
	<rect x="-33.5" y="13.5" class="st1" width="833" height="811"/>
</g>
<g id="grid">
	<g>
		<line class="st2" x1="693" y1="746.2" x2="719.6" y2="746.2"/>
		<rect x="693" y="719.6" class="st3" width="26.6" height="26.6"/>
		<line class="st2" x1="666.3" y1="746.2" x2="693" y2="746.2"/>
		<line class="st2" x1="639.7" y1="746.2" x2="666.3" y2="746.2"/>
		<line class="st2" x1="613.1" y1="746.2" x2="639.7" y2="746.2"/>
		<rect x="613.1" y="719.6" class="st3" width="26.6" height="26.6"/>
		<line class="st2" x1="586.4" y1="746.2" x2="613.1" y2="746.2"/>
		<rect x="586.4" y="719.6" class="st3" width="26.6" height="26.6"/>
		<line class="st2" x1="559.8" y1="746.2" x2="586.4" y2="746.2"/>
		<rect x="559.8" y="719.6" class="st3" width="26.6" height="26.6"/>
		<rect x="559.8" y="693" class="st3" width="26.6" height="26.6"/>
		<rect x="559.8" y="666.3" class="st3" width="26.6" height="26.6"/>
		<rect x="559.8" y="639.7" class="st3" width="26.6" height="26.6"/>
		<line class="st2" x1="533.2" y1="746.2" x2="559.8" y2="746.2"/>
		<rect x="533.2" y="719.6" class="st3" width="26.6" height="26.6"/>
		<rect x="533.2" y="693" class="st4" width="26.6" height="26.6"/>
		<rect x="533.2" y="666.3" class="st4" width="26.6" height="26.6"/>
		<rect x="533.2" y="639.7" class="st3" width="26.6" height="26.6"/>
		<rect x="533.2" y="613.1" class="st3" width="26.6" height="26.6"/>
		<line class="st2" x1="559.8" y1="613.1" x2="533.2" y2="613.1"/>
		<line class="st2" x1="506.5" y1="746.2" x2="533.2" y2="746.2"/>
		<rect x="506.5" y="719.6" class="st3" width="26.6" height="26.6"/>
		<rect x="506.5" y="693" class="st4" width="26.6" height="26.6"/>
		<rect x="506.5" y="666.3" class="st4" width="26.6" height="26.6"/>
		<rect x="506.5" y="639.7" class="st4" width="26.6" height="26.6"/>
		<rect x="506.5" y="613.1" class="st3" width="26.6" height="26.6"/>
		<line class="st2" x1="533.2" y1="613.1" x2="506.5" y2="613.1"/>
		<line class="st2" x1="479.9" y1="746.2" x2="506.5" y2="746.2"/>
		<rect x="479.9" y="719.6" class="st3" width="26.6" height="26.6"/>
		<rect x="479.9" y="693" class="st4" width="26.6" height="26.6"/>
		<rect x="479.9" y="666.3" class="st4" width="26.6" height="26.6"/>
		<rect x="479.9" y="639.7" class="st4" width="26.6" height="26.6"/>
		<rect x="479.9" y="613.1" class="st3" width="26.6" height="26.6"/>
		<line class="st2" x1="506.5" y1="613.1" x2="479.9" y2="613.1"/>
		<line class="st2" x1="453.3" y1="746.2" x2="479.9" y2="746.2"/>
		<rect x="453.3" y="719.6" class="st3" width="26.6" height="26.6"/>
		<rect x="453.3" y="693" class="st4" width="26.6" height="26.6"/>
		<rect x="453.3" y="666.3" class="st4" width="26.6" height="26.6"/>
		<rect x="453.3" y="639.7" class="st4" width="26.6" height="26.6"/>
		<rect x="453.3" y="613.1" class="st3" width="26.6" height="26.6"/>
		<line class="st2" x1="479.9" y1="613.1" x2="453.3" y2="613.1"/>
		<line class="st2" x1="426.6" y1="746.2" x2="453.3" y2="746.2"/>
		<rect x="426.6" y="719.6" class="st3" width="26.6" height="26.6"/>
		<rect x="426.6" y="693" class="st3" width="26.6" height="26.6"/>
		<rect x="426.6" y="666.3" class="st3" width="26.6" height="26.6"/>
		<rect x="426.6" y="639.7" class="st3" width="26.6" height="26.6"/>
		<line class="st2" x1="453.3" y1="613.1" x2="426.6" y2="613.1"/>
		<line class="st2" x1="400" y1="746.2" x2="426.6" y2="746.2"/>
		<line class="st2" x1="426.6" y1="639.7" x2="426.6" y2="666.3"/>
		<line class="st2" x1="426.6" y1="613.1" x2="426.6" y2="639.7"/>
		<path class="st2" d="M426.6,613.1"/>
		<line class="st2" x1="373.4" y1="746.2" x2="400" y2="746.2"/>
		<rect x="373.4" y="719.6" class="st3" width="26.6" height="26.6"/>
		<line class="st2" x1="346.7" y1="746.2" x2="373.4" y2="746.2"/>
		<line class="st2" x1="320.1" y1="746.2" x2="346.7" y2="746.2"/>
		<rect x="320.1" y="719.6" class="st3" width="26.6" height="26.6"/>
		<line class="st2" x1="293.5" y1="746.2" x2="320.1" y2="746.2"/>
		<line class="st2" x1="266.8" y1="746.2" x2="293.5" y2="746.2"/>
		<rect x="266.8" y="719.6" class="st3" width="26.6" height="26.6"/>
		<line class="st2" x1="240.2" y1="746.2" x2="266.8" y2="746.2"/>
		<rect x="240.2" y="719.6" class="st3" width="26.6" height="26.6"/>
		<line class="st2" x1="133.7" y1="746.2" x2="160.3" y2="746.2"/>
		<rect x="133.7" y="719.6" class="st3" width="26.6" height="26.6"/>
		<line class="st2" x1="107" y1="746.2" x2="133.7" y2="746.2"/>
		<rect x="107" y="719.6" class="st3" width="26.6" height="26.6"/>
		<rect x="107" y="693" class="st3" width="26.6" height="26.6"/>
		<line class="st2" x1="133.7" y1="693" x2="107" y2="693"/>
		<line class="st2" x1="80.4" y1="746.2" x2="107" y2="746.2"/>
		<rect x="80.4" y="719.6" class="st3" width="26.6" height="26.6"/>
		<line class="st2" x1="53.8" y1="746.2" x2="80.4" y2="746.2"/>
		<line class="st2" x1="27.1" y1="746.2" x2="53.8" y2="746.2"/>
		<rect x="27.1" y="719.6" class="st3" width="26.6" height="26.6"/>
		<line class="st2" x1="0.5" y1="746.2" x2="27.1" y2="746.2"/>
	</g>
</g>
</svg>
