<?xml version="1.0" encoding="utf-8"?>
<!-- Generator: Adobe Illustrator 21.0.0, SVG Export Plug-In . SVG Version: 6.00 Build 0)  -->
<svg version="1.1" xmlns="http://www.w3.org/2000/svg" xmlns:xlink="http://www.w3.org/1999/xlink" x="0px" y="0px"
	 viewBox="0 0 800 800" style="enable-background:new 0 0 800 800;" xml:space="preserve">
<style type="text/css">
	.st0{fill:#2E3192;}
	.st1{fill:#ED1C24;}
	.st2{fill:#FFC60B;}
	.st3{fill:#FFFFFF;}
</style>
<g id="grid">
	<g>
		<rect x="666.3" y="346.7" class="st0" width="26.6" height="26.6"/>
		<rect x="639.7" y="426.6" class="st0" width="26.6" height="26.6"/>
		<rect x="639.7" y="400" class="st0" width="26.6" height="26.6"/>
		<rect x="639.7" y="373.4" class="st0" width="26.6" height="26.6"/>
		<rect x="639.7" y="346.7" class="st0" width="26.6" height="26.6"/>
		<rect x="613.1" y="506.5" class="st0" width="26.6" height="26.6"/>
		<rect x="613.1" y="479.9" class="st0" width="26.6" height="26.6"/>
		<rect x="613.1" y="453.3" class="st0" width="26.6" height="26.6"/>
		<rect x="613.1" y="426.6" class="st1" width="26.6" height="26.6"/>
		<rect x="613.1" y="400" class="st1" width="26.6" height="26.6"/>
		<rect x="613.1" y="373.4" class="st1" width="26.6" height="26.6"/>
		<rect x="613.1" y="346.7" class="st0" width="26.6" height="26.6"/>
		<rect x="586.4" y="533.2" class="st0" width="26.6" height="26.6"/>
		<rect x="586.4" y="506.5" class="st2" width="26.6" height="26.6"/>
		<rect x="586.4" y="479.9" class="st0" width="26.6" height="26.6"/>
		<rect x="586.4" y="453.3" class="st1" width="26.6" height="26.6"/>
		<rect x="586.4" y="426.6" class="st1" width="26.6" height="26.6"/>
		<rect x="586.4" y="400" class="st1" width="26.6" height="26.6"/>
		<rect x="586.4" y="373.4" class="st1" width="26.6" height="26.6"/>
		<rect x="586.4" y="346.7" class="st0" width="26.6" height="26.6"/>
		<rect x="559.8" y="559.8" class="st0" width="26.6" height="26.6"/>
		<rect x="559.8" y="533.2" class="st2" width="26.6" height="26.6"/>
		<rect x="559.8" y="506.5" class="st0" width="26.6" height="26.6"/>
		<rect x="559.8" y="479.9" class="st1" width="26.6" height="26.6"/>
		<rect x="559.8" y="453.3" class="st1" width="26.6" height="26.6"/>
		<rect x="559.8" y="426.6" class="st1" width="26.6" height="26.6"/>
		<rect x="559.8" y="400" class="st1" width="26.6" height="26.6"/>
		<rect x="559.8" y="373.4" class="st1" width="26.6" height="26.6"/>
		<rect x="559.8" y="346.7" class="st0" width="26.6" height="26.6"/>
		<rect x="533.2" y="559.8" class="st0" width="26.6" height="26.6"/>
		<rect x="533.2" y="533.2" class="st0" width="26.6" height="26.6"/>
		<rect x="533.2" y="506.5" class="st1" width="26.6" height="26.6"/>
		<rect x="533.2" y="479.9" class="st1" width="26.6" height="26.6"/>
		<rect x="533.2" y="453.3" class="st1" width="26.6" height="26.6"/>
		<rect x="533.2" y="426.6" class="st1" width="26.6" height="26.6"/>
		<rect x="533.2" y="400" class="st1" width="26.6" height="26.6"/>
		<rect x="533.2" y="373.4" class="st1" width="26.6" height="26.6"/>
		<rect x="533.2" y="346.7" class="st0" width="26.6" height="26.6"/>
		<rect x="506.5" y="586.4" class="st0" width="26.6" height="26.6"/>
		<rect x="506.5" y="559.8" class="st2" width="26.6" height="26.6"/>
		<rect x="506.5" y="533.2" class="st0" width="26.6" height="26.6"/>
		<rect x="506.5" y="506.5" class="st1" width="26.6" height="26.6"/>
		<rect x="506.5" y="479.9" class="st1" width="26.6" height="26.6"/>
		<rect x="506.5" y="453.3" class="st1" width="26.6" height="26.6"/>
		<rect x="506.5" y="426.6" class="st1" width="26.6" height="26.6"/>
		<rect x="506.5" y="400" class="st1" width="26.6" height="26.6"/>
		<rect x="506.5" y="373.4" class="st1" width="26.6" height="26.6"/>
		<rect x="506.5" y="346.7" class="st1" width="26.6" height="26.6"/>
		<rect x="506.5" y="320.1" class="st0" width="26.6" height="26.6"/>
		<rect x="479.9" y="586.4" class="st0" width="26.6" height="26.6"/>
		<rect x="479.9" y="559.8" class="st2" width="26.6" height="26.6"/>
		<rect x="479.9" y="533.2" class="st0" width="26.6" height="26.6"/>
		<rect x="479.9" y="506.5" class="st1" width="26.6" height="26.6"/>
		<rect x="479.9" y="479.9" class="st1" width="26.6" height="26.6"/>
		<rect x="479.9" y="453.3" class="st1" width="26.6" height="26.6"/>
		<rect x="479.9" y="426.6" class="st1" width="26.6" height="26.6"/>
		<rect x="479.9" y="400" class="st1" width="26.6" height="26.6"/>
		<rect x="479.9" y="373.4" class="st1" width="26.6" height="26.6"/>
		<rect x="479.9" y="346.7" class="st1" width="26.6" height="26.6"/>
		<rect x="479.9" y="320.1" class="st3" width="26.6" height="26.6"/>
		<rect x="479.9" y="293.5" class="st0" width="26.6" height="26.6"/>
		<rect x="453.3" y="666.3" class="st0" width="26.6" height="26.6"/>
		<rect x="453.3" y="639.7" class="st0" width="26.6" height="26.6"/>
		<rect x="453.3" y="613.1" class="st0" width="26.6" height="26.6"/>
		<rect x="453.3" y="586.4" class="st0" width="26.6" height="26.6"/>
		<rect x="453.3" y="559.8" class="st2" width="26.6" height="26.6"/>
		<rect x="453.3" y="533.2" class="st2" width="26.6" height="26.6"/>
		<rect x="453.3" y="506.5" class="st0" width="26.6" height="26.6"/>
		<rect x="453.3" y="479.9" class="st1" width="26.6" height="26.6"/>
		<rect x="453.3" y="453.3" class="st1" width="26.6" height="26.6"/>
		<rect x="453.3" y="426.6" class="st1" width="26.6" height="26.6"/>
		<rect x="453.3" y="400" class="st1" width="26.6" height="26.6"/>
		<rect x="453.3" y="373.4" class="st1" width="26.6" height="26.6"/>
		<rect x="453.3" y="346.7" class="st3" width="26.6" height="26.6"/>
		<rect x="453.3" y="320.1" class="st3" width="26.6" height="26.6"/>
		<rect x="453.3" y="293.5" class="st0" width="26.6" height="26.6"/>
		<rect x="426.6" y="666.3" class="st0" width="26.6" height="26.6"/>
		<rect x="426.6" y="586.4" class="st0" width="26.6" height="26.6"/>
		<rect x="426.6" y="559.8" class="st2" width="26.6" height="26.6"/>
		<rect x="426.6" y="533.2" class="st2" width="26.6" height="26.6"/>
		<rect x="426.6" y="506.5" class="st2" width="26.6" height="26.6"/>
		<rect x="426.6" y="479.9" class="st0" width="26.6" height="26.6"/>
		<rect x="426.6" y="453.3" class="st1" width="26.6" height="26.6"/>
		<rect x="426.6" y="426.6" class="st1" width="26.6" height="26.6"/>
		<rect x="426.6" y="400" class="st1" width="26.6" height="26.6"/>
		<rect x="426.6" y="373.4" class="st3" width="26.6" height="26.6"/>
		<rect x="426.6" y="346.7" class="st3" width="26.6" height="26.6"/>
		<rect x="426.6" y="320.1" class="st0" width="26.6" height="26.6"/>
		<rect x="426.6" y="293.5" class="st0" width="26.6" height="26.6"/>
		<rect x="426.6" y="266.8" class="st0" width="26.6" height="26.6"/>
		<rect x="426.6" y="240.2" class="st0" width="26.6" height="26.6"/>
		<rect x="400" y="586.4" class="st0" width="26.6" height="26.6"/>
		<rect x="400" y="559.8" class="st2" width="26.6" height="26.6"/>
		<rect x="400" y="533.2" class="st2" width="26.6" height="26.6"/>
		<rect x="400" y="506.5" class="st2" width="26.6" height="26.6"/>
		<rect x="400" y="479.9" class="st0" width="26.6" height="26.6"/>
		<rect x="400" y="453.3" class="st0" width="26.6" height="26.6"/>
		<rect x="400" y="426.6" class="st1" width="26.6" height="26.6"/>
		<rect x="400" y="400" class="st1" width="26.6" height="26.6"/>
		<rect x="400" y="373.4" class="st3" width="26.6" height="26.6"/>
		<rect x="400" y="346.7" class="st0" width="26.6" height="26.6"/>
		<rect x="400" y="320.1" class="st2" width="26.6" height="26.6"/>
		<rect x="400" y="293.5" class="st2" width="26.6" height="26.6"/>
		<rect x="400" y="266.8" class="st2" width="26.6" height="26.6"/>
		<rect x="400" y="240.2" class="st0" width="26.6" height="26.6"/>
		<rect x="400" y="213.6" class="st0" width="26.6" height="26.6"/>
		<rect x="400" y="186.9" class="st0" width="26.6" height="26.6"/>
		<rect x="373.4" y="666.3" class="st0" width="26.6" height="26.6"/>
		<rect x="373.4" y="639.7" class="st0" width="26.6" height="26.6"/>
		<rect x="373.4" y="613.1" class="st0" width="26.6" height="26.6"/>
		<rect x="373.4" y="586.4" class="st0" width="26.6" height="26.6"/>
		<rect x="373.4" y="559.8" class="st2" width="26.6" height="26.6"/>
		<rect x="373.4" y="533.2" class="st2" width="26.6" height="26.6"/>
		<rect x="373.4" y="506.5" class="st2" width="26.6" height="26.6"/>
		<rect x="373.4" y="479.9" class="st0" width="26.6" height="26.6"/>
		<rect x="373.4" y="453.3" class="st2" width="26.6" height="26.6"/>
		<rect x="373.4" y="426.6" class="st0" width="26.6" height="26.6"/>
		<rect x="373.4" y="400" class="st1" width="26.6" height="26.6"/>
		<rect x="373.4" y="373.4" class="st3" width="26.6" height="26.6"/>
		<rect x="373.4" y="346.7" class="st0" width="26.6" height="26.6"/>
		<rect x="373.4" y="320.1" class="st2" width="26.6" height="26.6"/>
		<rect x="373.4" y="293.5" class="st2" width="26.6" height="26.6"/>
		<rect x="373.4" y="266.8" class="st2" width="26.6" height="26.6"/>
		<rect x="373.4" y="240.2" class="st2" width="26.6" height="26.6"/>
		<rect x="373.4" y="213.6" class="st2" width="26.6" height="26.6"/>
		<rect x="373.4" y="186.9" class="st0" width="26.6" height="26.6"/>
		<rect x="373.4" y="160.3" class="st0" width="26.6" height="26.6"/>
		<rect x="373.4" y="133.7" class="st0" width="26.6" height="26.6"/>
		<rect x="373.4" y="107" class="st0" width="26.6" height="26.6"/>
		<rect x="373.4" y="80.4" class="st0" width="26.6" height="26.6"/>
		<rect x="346.7" y="666.3" class="st0" width="26.6" height="26.6"/>
		<rect x="346.7" y="586.4" class="st0" width="26.6" height="26.6"/>
		<rect x="346.7" y="559.8" class="st2" width="26.6" height="26.6"/>
		<rect x="346.7" y="533.2" class="st2" width="26.6" height="26.6"/>
		<rect x="346.7" y="506.5" class="st2" width="26.6" height="26.6"/>
		<rect x="346.7" y="479.9" class="st0" width="26.6" height="26.6"/>
		<rect x="346.7" y="453.3" class="st2" width="26.6" height="26.6"/>
		<rect x="346.7" y="426.6" class="st2" width="26.6" height="26.6"/>
		<rect x="346.7" y="400" class="st0" width="26.6" height="26.6"/>
		<rect x="346.7" y="373.4" class="st3" width="26.6" height="26.6"/>
		<rect x="346.7" y="346.7" class="st0" width="26.6" height="26.6"/>
		<rect x="346.7" y="320.1" class="st2" width="26.6" height="26.6"/>
		<rect x="346.7" y="293.5" class="st2" width="26.6" height="26.6"/>
		<rect x="346.7" y="266.8" class="st2" width="26.6" height="26.6"/>
		<rect x="346.7" y="240.2" class="st2" width="26.6" height="26.6"/>
		<rect x="346.7" y="213.6" class="st2" width="26.6" height="26.6"/>
		<rect x="346.7" y="186.9" class="st2" width="26.6" height="26.6"/>
		<rect x="346.7" y="160.3" class="st0" width="26.6" height="26.6"/>
		<rect x="346.7" y="133.7" class="st0" width="26.6" height="26.6"/>
		<rect x="320.1" y="586.4" class="st0" width="26.6" height="26.6"/>
		<rect x="320.1" y="559.8" class="st2" width="26.6" height="26.6"/>
		<rect x="320.1" y="533.2" class="st2" width="26.6" height="26.6"/>
		<rect x="320.1" y="506.5" class="st2" width="26.6" height="26.6"/>
		<rect x="320.1" y="479.9" class="st0" width="26.6" height="26.6"/>
		<rect x="320.1" y="453.3" class="st0" width="26.6" height="26.6"/>
		<rect x="320.1" y="426.6" class="st2" width="26.6" height="26.6"/>
		<rect x="320.1" y="400" class="st0" width="26.6" height="26.6"/>
		<rect x="320.1" y="373.4" class="st3" width="26.6" height="26.6"/>
		<rect x="320.1" y="346.7" class="st0" width="26.6" height="26.6"/>
		<rect x="320.1" y="320.1" class="st2" width="26.6" height="26.6"/>
		<rect x="320.1" y="293.5" class="st2" width="26.6" height="26.6"/>
		<rect x="320.1" y="266.8" class="st2" width="26.6" height="26.6"/>
		<rect x="320.1" y="240.2" class="st2" width="26.6" height="26.6"/>
		<rect x="320.1" y="213.6" class="st0" width="26.6" height="26.6"/>
		<rect x="320.1" y="186.9" class="st2" width="26.6" height="26.6"/>
		<rect x="320.1" y="160.3" class="st0" width="26.6" height="26.6"/>
		<rect x="320.1" y="133.7" class="st0" width="26.6" height="26.6"/>
		<rect x="320.1" y="107" class="st0" width="26.6" height="26.6"/>
		<rect x="293.5" y="559.8" class="st0" width="26.6" height="26.6"/>
		<rect x="293.5" y="533.2" class="st2" width="26.6" height="26.6"/>
		<rect x="293.5" y="506.5" class="st2" width="26.6" height="26.6"/>
		<rect x="293.5" y="479.9" class="st2" width="26.6" height="26.6"/>
		<rect x="293.5" y="453.3" class="st0" width="26.6" height="26.6"/>
		<rect x="293.5" y="426.6" class="st0" width="26.6" height="26.6"/>
		<rect x="293.5" y="400" class="st2" width="26.6" height="26.6"/>
		<rect x="293.5" y="373.4" class="st0" width="26.6" height="26.6"/>
		<rect x="293.5" y="346.7" class="st2" width="26.6" height="26.6"/>
		<rect x="293.5" y="320.1" class="st2" width="26.6" height="26.6"/>
		<rect x="293.5" y="293.5" class="st2" width="26.6" height="26.6"/>
		<rect x="293.5" y="266.8" class="st2" width="26.6" height="26.6"/>
		<rect x="293.5" y="240.2" class="st2" width="26.6" height="26.6"/>
		<rect x="293.5" y="213.6" class="st2" width="26.6" height="26.6"/>
		<rect x="293.5" y="186.9" class="st2" width="26.6" height="26.6"/>
		<rect x="293.5" y="160.3" class="st0" width="26.6" height="26.6"/>
		<rect x="293.5" y="133.7" class="st0" width="26.6" height="26.6"/>
		<rect x="266.8" y="559.8" class="st0" width="26.6" height="26.6"/>
		<rect x="266.8" y="533.2" class="st2" width="26.6" height="26.6"/>
		<rect x="266.8" y="506.5" class="st2" width="26.6" height="26.6"/>
		<rect x="266.8" y="479.9" class="st2" width="26.6" height="26.6"/>
		<rect x="266.8" y="453.3" class="st2" width="26.6" height="26.6"/>
		<rect x="266.8" y="426.6" class="st2" width="26.6" height="26.6"/>
		<rect x="266.8" y="400" class="st2" width="26.6" height="26.6"/>
		<rect x="266.8" y="373.4" class="st2" width="26.6" height="26.6"/>
		<rect x="266.8" y="346.7" class="st2" width="26.6" height="26.6"/>
		<rect x="266.8" y="320.1" class="st2" width="26.6" height="26.6"/>
		<rect x="266.8" y="293.5" class="st2" width="26.6" height="26.6"/>
		<rect x="266.8" y="266.8" class="st2" width="26.6" height="26.6"/>
		<rect x="266.8" y="240.2" class="st2" width="26.6" height="26.6"/>
		<rect x="266.8" y="213.6" class="st2" width="26.6" height="26.6"/>
		<rect x="266.8" y="186.9" class="st2" width="26.6" height="26.6"/>
		<rect x="266.8" y="160.3" class="st0" width="26.6" height="26.6"/>
		<rect x="266.8" y="133.7" class="st0" width="26.6" height="26.6"/>
		<rect x="240.2" y="533.2" class="st0" width="26.6" height="26.6"/>
		<rect x="240.2" y="506.5" class="st2" width="26.6" height="26.6"/>
		<rect x="240.2" y="479.9" class="st2" width="26.6" height="26.6"/>
		<rect x="240.2" y="453.3" class="st2" width="26.6" height="26.6"/>
		<rect x="240.2" y="426.6" class="st2" width="26.6" height="26.6"/>
		<rect x="240.2" y="400" class="st2" width="26.6" height="26.6"/>
		<rect x="240.2" y="373.4" class="st2" width="26.6" height="26.6"/>
		<rect x="240.2" y="346.7" class="st2" width="26.6" height="26.6"/>
		<rect x="240.2" y="320.1" class="st0" width="26.6" height="26.6"/>
		<rect x="240.2" y="293.5" class="st0" width="26.6" height="26.6"/>
		<rect x="240.2" y="266.8" class="st0" width="26.6" height="26.6"/>
		<rect x="240.2" y="240.2" class="st2" width="26.6" height="26.6"/>
		<rect x="240.2" y="213.6" class="st0" width="26.6" height="26.6"/>
		<rect x="240.2" y="186.9" class="st2" width="26.6" height="26.6"/>
		<rect x="240.2" y="160.3" class="st0" width="26.6" height="26.6"/>
		<rect x="240.2" y="133.7" class="st0" width="26.6" height="26.6"/>
		<rect x="240.2" y="107" class="st0" width="26.6" height="26.6"/>
		<rect x="240.2" y="80.4" class="st0" width="26.6" height="26.6"/>
		<rect x="213.6" y="506.5" class="st0" width="26.6" height="26.6"/>
		<rect x="213.6" y="479.9" class="st2" width="26.6" height="26.6"/>
		<rect x="213.6" y="453.3" class="st2" width="26.6" height="26.6"/>
		<rect x="213.6" y="426.6" class="st2" width="26.6" height="26.6"/>
		<rect x="213.6" y="400" class="st2" width="26.6" height="26.6"/>
		<rect x="213.6" y="373.4" class="st0" width="26.6" height="26.6"/>
		<rect x="213.6" y="346.7" class="st0" width="26.6" height="26.6"/>
		<rect x="213.6" y="320.1" class="st2" width="26.6" height="26.6"/>
		<rect x="213.6" y="293.5" class="st0" width="26.6" height="26.6"/>
		<rect x="213.6" y="266.8" class="st0" width="26.6" height="26.6"/>
		<rect x="213.6" y="240.2" class="st0" width="26.6" height="26.6"/>
		<rect x="213.6" y="213.6" class="st2" width="26.6" height="26.6"/>
		<rect x="213.6" y="186.9" class="st0" width="26.6" height="26.6"/>
		<rect x="186.9" y="479.9" class="st0" width="26.6" height="26.6"/>
		<rect x="186.9" y="453.3" class="st0" width="26.6" height="26.6"/>
		<rect x="186.9" y="426.6" class="st0" width="26.6" height="26.6"/>
		<rect x="186.9" y="400" class="st0" width="26.6" height="26.6"/>
		<rect x="186.9" y="346.7" class="st0" width="26.6" height="26.6"/>
		<rect x="186.9" y="320.1" class="st2" width="26.6" height="26.6"/>
		<rect x="186.9" y="293.5" class="st0" width="26.6" height="26.6"/>
		<rect x="186.9" y="240.2" class="st0" width="26.6" height="26.6"/>
		<rect x="186.9" y="213.6" class="st2" width="26.6" height="26.6"/>
		<rect x="186.9" y="186.9" class="st0" width="26.6" height="26.6"/>
		<rect x="160.3" y="320.1" class="st0" width="26.6" height="26.6"/>
		<rect x="160.3" y="293.5" class="st0" width="26.6" height="26.6"/>
		<rect x="160.3" y="240.2" class="st0" width="26.6" height="26.6"/>
		<rect x="160.3" y="213.6" class="st2" width="26.6" height="26.6"/>
		<rect x="160.3" y="186.9" class="st0" width="26.6" height="26.6"/>
		<rect x="133.7" y="293.5" class="st0" width="26.6" height="26.6"/>
		<rect x="133.7" y="213.6" class="st0" width="26.6" height="26.6"/>
	</g>
	<rect x="240.5" y="133.5" class="st0" width="159" height="53"/>
	<rect x="160" y="187" class="st0" width="80" height="27"/>
	<rect x="160" y="240" class="st0" width="80" height="27"/>
	<rect x="214" y="267" class="st0" width="53" height="53"/>
	<rect x="134" y="293" class="st0" width="93" height="27"/>
	<rect x="187" y="347" class="st0" width="53" height="26"/>
	<rect x="187" y="400" class="st0" width="27" height="107"/>
	<rect x="214" y="347" class="st0" width="26" height="53"/>
	<rect x="267" y="560" class="st0" width="53" height="26"/>
	<rect x="320" y="586" class="st0" width="213" height="27"/>
	<rect x="374" y="615" class="st0" width="26" height="78"/>
	<rect x="347" y="666" class="st0" width="53" height="27"/>
	<rect x="453" y="613" class="st0" width="27" height="80"/>
	<rect x="427" y="666" class="st0" width="53" height="27"/>
	<rect x="538" y="347" class="st0" width="155" height="26"/>
	<rect x="640" y="373" class="st0" width="26" height="80"/>
	<rect x="613" y="453" class="st0" width="27" height="80"/>
	<rect x="480" y="533" class="st0" width="80" height="27"/>
	<rect x="320" y="480" class="st0" width="133" height="27"/>
	<rect x="293" y="427" class="st0" width="28" height="52"/>
	<rect x="320" y="400" class="st0" width="53" height="27"/>
	<rect x="320" y="347" class="st0" width="107" height="26"/>
	<rect x="427" y="240" class="st0" width="26" height="107"/>
	<rect x="400" y="193" class="st0" width="26" height="74"/>
	<rect x="240" y="84" class="st0" width="26" height="69"/>
	<rect x="373" y="84" class="st0" width="27" height="69"/>
	<rect x="320" y="107" class="st0" width="26" height="46"/>
	<rect x="405" y="240" class="st0" width="41" height="26"/>
	<rect x="440" y="293" class="st0" width="67" height="27"/>
	<rect x="267" y="187" class="st2" width="53" height="89"/>
	<rect x="267" y="240" class="st2" width="132" height="107"/>
	<rect x="346" y="187" class="st2" width="27" height="67"/>
	<rect x="373" y="266" class="st2" width="53" height="81"/>
	<rect x="240" y="347" class="st2" width="53" height="186"/>
	<rect x="214" y="400" class="st2" width="53" height="107"/>
	<rect x="320" y="533" class="st2" width="160" height="53"/>
	<rect x="453" y="560" class="st2" width="80" height="26"/>
	<rect x="267" y="507" class="st2" width="186" height="52"/>
	<rect x="240" y="483" class="st2" width="80" height="50"/>
	<rect x="321" y="427" class="st2" width="52" height="26"/>
	<rect x="346" y="453" class="st2" width="53" height="26"/>
	<rect x="187" y="320" class="st2" width="53" height="27"/>
	<rect x="160" y="214" class="st2" width="80" height="26"/>
	<rect x="347" y="214" class="st2" width="52" height="40"/>
	<rect x="401" y="400" class="st1" width="239" height="53"/>
	<rect x="480" y="373" class="st1" width="80" height="160"/>
	<rect x="427" y="400" class="st1" width="186" height="79"/>
	<rect x="480" y="347" class="st1" width="53" height="62"/>
	<rect x="553" y="373" class="st1" width="87" height="40"/>
	<rect x="280" y="347" class="st2" width="40" height="26"/>
	<rect x="273" y="400" class="st2" width="47" height="26"/>
	<rect x="241" y="187" class="st2" width="106" height="27"/>
	<rect x="321" y="373" class="st3" width="132" height="27"/>
	<rect x="426" y="347" class="st3" width="54" height="27"/>
	<rect x="454" y="320" class="st3" width="53" height="27"/>
	<rect x="374" y="400" class="st1" width="106" height="27"/>
	<rect x="373" y="153" class="st0" width="26" height="61"/>
	<rect x="160" y="294" class="st0" width="27" height="53"/>
	<rect x="241" y="293" class="st0" width="26" height="54"/>
	<rect x="533" y="533" class="st0" width="27" height="53"/>
	<rect x="586" y="480" class="st0" width="54" height="27"/>
</g>
<g id="Layer_2">
</g>
</svg>
