<?xml version="1.0" encoding="utf-8"?>
<!-- Generator: Adobe Illustrator 21.0.0, SVG Export Plug-In . SVG Version: 6.00 Build 0)  -->
<svg version="1.1" id="grid" xmlns="http://www.w3.org/2000/svg" xmlns:xlink="http://www.w3.org/1999/xlink" x="0px" y="0px"
	 viewBox="0 0 800 800" style="enable-background:new 0 0 800 800;" xml:space="preserve">
<style type="text/css">
	.st0{fill:#FFFFFF;}
	.st1{fill:#2E3192;}
	.st2{fill:#ED1C24;}
	.st3{fill:#FFC60B;}
</style>
<g>
	<g id="XMLID_1_">
		<g>
			<polygon class="st0" points="506.5,320.1 506.5,346.7 479.9,346.7 479.9,373.4 453.3,373.4 453.3,400 426.6,400 400,400 
				373.4,400 346.7,400 320.1,400 320.1,373.4 346.7,373.4 373.4,373.4 400,373.4 426.6,373.4 426.6,346.7 453.3,346.7 453.3,320.1 
				479.9,320.1 			"/>
			<rect x="666.3" y="346.7" class="st1" width="26.6" height="26.6"/>
			<rect x="639.7" y="426.6" class="st1" width="26.6" height="26.6"/>
			<rect x="639.7" y="400" class="st1" width="26.6" height="26.6"/>
			<rect x="639.7" y="373.4" class="st1" width="26.6" height="26.6"/>
			<rect x="639.7" y="346.7" class="st1" width="26.6" height="26.6"/>
			<rect x="613.1" y="506.5" class="st1" width="26.6" height="26.6"/>
			<rect x="613.1" y="479.9" class="st1" width="26.6" height="26.6"/>
			<rect x="613.1" y="453.3" class="st1" width="26.6" height="26.6"/>
			<rect x="613.1" y="426.6" class="st2" width="26.6" height="26.6"/>
			<rect x="613.1" y="400" class="st2" width="26.6" height="26.6"/>
			<rect x="613.1" y="373.4" class="st2" width="26.6" height="26.6"/>
			<rect x="613.1" y="346.7" class="st1" width="26.6" height="26.6"/>
			<rect x="586.4" y="533.2" class="st1" width="26.6" height="26.6"/>
			<rect x="586.4" y="506.5" class="st3" width="26.6" height="26.6"/>
			<rect x="586.4" y="479.9" class="st1" width="26.6" height="26.6"/>
			<rect x="586.4" y="453.3" class="st2" width="26.6" height="26.6"/>
			<rect x="586.4" y="426.6" class="st2" width="26.6" height="26.6"/>
			<rect x="586.4" y="400" class="st2" width="26.6" height="26.6"/>
			<rect x="586.4" y="373.4" class="st2" width="26.6" height="26.6"/>
			<rect x="586.4" y="346.7" class="st1" width="26.6" height="26.6"/>
			<rect x="559.8" y="559.8" class="st1" width="26.6" height="26.6"/>
			<rect x="559.8" y="533.2" class="st3" width="26.6" height="26.6"/>
			<rect x="559.8" y="506.5" class="st1" width="26.6" height="26.6"/>
			<rect x="559.8" y="479.9" class="st2" width="26.6" height="26.6"/>
			<rect x="559.8" y="453.3" class="st2" width="26.6" height="26.6"/>
			<rect x="559.8" y="426.6" class="st2" width="26.6" height="26.6"/>
			<rect x="559.8" y="400" class="st2" width="26.6" height="26.6"/>
			<rect x="559.8" y="373.4" class="st2" width="26.6" height="26.6"/>
			<rect x="559.8" y="346.7" class="st1" width="26.6" height="26.6"/>
			<rect x="533.2" y="559.8" class="st1" width="26.6" height="26.6"/>
			<rect x="533.2" y="533.2" class="st1" width="26.6" height="26.6"/>
			<rect x="533.2" y="506.5" class="st2" width="26.6" height="26.6"/>
			<rect x="533.2" y="479.9" class="st2" width="26.6" height="26.6"/>
			<rect x="533.2" y="453.3" class="st2" width="26.6" height="26.6"/>
			<rect x="533.2" y="426.6" class="st2" width="26.6" height="26.6"/>
			<rect x="533.2" y="400" class="st2" width="26.6" height="26.6"/>
			<rect x="533.2" y="373.4" class="st2" width="26.6" height="26.6"/>
			<rect x="533.2" y="346.7" class="st1" width="26.6" height="26.6"/>
			<rect x="506.5" y="586.4" class="st1" width="26.6" height="26.6"/>
			<rect x="506.5" y="559.8" class="st3" width="26.6" height="26.6"/>
			<rect x="506.5" y="533.2" class="st1" width="26.6" height="26.6"/>
			<rect x="506.5" y="506.5" class="st2" width="26.6" height="26.6"/>
			<rect x="506.5" y="479.9" class="st2" width="26.6" height="26.6"/>
			<rect x="506.5" y="453.3" class="st2" width="26.6" height="26.6"/>
			<rect x="506.5" y="426.6" class="st2" width="26.6" height="26.6"/>
			<rect x="506.5" y="400" class="st2" width="26.6" height="26.6"/>
			<rect x="506.5" y="373.4" class="st2" width="26.6" height="26.6"/>
			<rect x="506.5" y="346.7" class="st2" width="26.6" height="26.6"/>
			<rect x="506.5" y="320.1" class="st1" width="26.6" height="26.6"/>
			<rect x="479.9" y="586.4" class="st1" width="26.6" height="26.6"/>
			<rect x="479.9" y="559.8" class="st3" width="26.6" height="26.6"/>
			<rect x="479.9" y="533.2" class="st1" width="26.6" height="26.6"/>
			<rect x="479.9" y="506.5" class="st2" width="26.6" height="26.6"/>
			<rect x="479.9" y="479.9" class="st2" width="26.6" height="26.6"/>
			<rect x="479.9" y="453.3" class="st2" width="26.6" height="26.6"/>
			<rect x="479.9" y="426.6" class="st2" width="26.6" height="26.6"/>
			<rect x="479.9" y="400" class="st2" width="26.6" height="26.6"/>
			<rect x="479.9" y="373.4" class="st2" width="26.6" height="26.6"/>
			<rect x="479.9" y="346.7" class="st2" width="26.6" height="26.6"/>
			<rect x="479.9" y="293.5" class="st1" width="26.6" height="26.6"/>
			<rect x="453.3" y="666.3" class="st1" width="26.6" height="26.6"/>
			<rect x="453.3" y="639.7" class="st1" width="26.6" height="26.6"/>
			<rect x="453.3" y="613.1" class="st1" width="26.6" height="26.6"/>
			<rect x="453.3" y="586.4" class="st1" width="26.6" height="26.6"/>
			<rect x="453.3" y="559.8" class="st3" width="26.6" height="26.6"/>
			<rect x="453.3" y="533.2" class="st3" width="26.6" height="26.6"/>
			<rect x="453.3" y="506.5" class="st1" width="26.6" height="26.6"/>
			<rect x="453.3" y="479.9" class="st2" width="26.6" height="26.6"/>
			<rect x="453.3" y="453.3" class="st2" width="26.6" height="26.6"/>
			<rect x="453.3" y="426.6" class="st2" width="26.6" height="26.6"/>
			<rect x="453.3" y="400" class="st2" width="26.6" height="26.6"/>
			<rect x="453.3" y="373.4" class="st2" width="26.6" height="26.6"/>
			<rect x="453.3" y="293.5" class="st1" width="26.6" height="26.6"/>
			<rect x="426.6" y="666.3" class="st1" width="26.6" height="26.6"/>
			<rect x="426.6" y="586.4" class="st1" width="26.6" height="26.6"/>
			<rect x="426.6" y="559.8" class="st3" width="26.6" height="26.6"/>
			<rect x="426.6" y="533.2" class="st3" width="26.6" height="26.6"/>
			<rect x="426.6" y="506.5" class="st3" width="26.6" height="26.6"/>
			<rect x="426.6" y="479.9" class="st1" width="26.6" height="26.6"/>
			<rect x="426.6" y="453.3" class="st2" width="26.6" height="26.6"/>
			<rect x="426.6" y="426.6" class="st2" width="26.6" height="26.6"/>
			<rect x="426.6" y="400" class="st2" width="26.6" height="26.6"/>
			<rect x="426.6" y="320.1" class="st1" width="26.6" height="26.6"/>
			<rect x="426.6" y="293.5" class="st1" width="26.6" height="26.6"/>
			<rect x="426.6" y="266.8" class="st1" width="26.6" height="26.6"/>
			<rect x="426.6" y="240.2" class="st1" width="26.6" height="26.6"/>
			<rect x="400" y="586.4" class="st1" width="26.6" height="26.6"/>
			<rect x="400" y="559.8" class="st3" width="26.6" height="26.6"/>
			<rect x="400" y="533.2" class="st3" width="26.6" height="26.6"/>
			<rect x="400" y="506.5" class="st3" width="26.6" height="26.6"/>
			<rect x="400" y="479.9" class="st1" width="26.6" height="26.6"/>
			<rect x="400" y="453.3" class="st1" width="26.6" height="26.6"/>
			<rect x="400" y="426.6" class="st2" width="26.6" height="26.6"/>
			<rect x="400" y="400" class="st2" width="26.6" height="26.6"/>
			<rect x="400" y="346.7" class="st1" width="26.6" height="26.6"/>
			<rect x="400" y="320.1" class="st3" width="26.6" height="26.6"/>
			<rect x="400" y="293.5" class="st3" width="26.6" height="26.6"/>
			<rect x="400" y="266.8" class="st3" width="26.6" height="26.6"/>
			<rect x="400" y="240.2" class="st1" width="26.6" height="26.6"/>
			<rect x="400" y="213.6" class="st1" width="26.6" height="26.6"/>
			<rect x="400" y="186.9" class="st1" width="26.6" height="26.6"/>
			<rect x="373.4" y="666.3" class="st1" width="26.6" height="26.6"/>
			<rect x="373.4" y="639.7" class="st1" width="26.6" height="26.6"/>
			<rect x="373.4" y="613.1" class="st1" width="26.6" height="26.6"/>
			<rect x="373.4" y="586.4" class="st1" width="26.6" height="26.6"/>
			<rect x="373.4" y="559.8" class="st3" width="26.6" height="26.6"/>
			<rect x="373.4" y="533.2" class="st3" width="26.6" height="26.6"/>
			<rect x="373.4" y="506.5" class="st3" width="26.6" height="26.6"/>
			<rect x="373.4" y="479.9" class="st1" width="26.6" height="26.6"/>
			<rect x="373.4" y="453.3" class="st3" width="26.6" height="26.6"/>
			<rect x="373.4" y="426.6" class="st1" width="26.6" height="26.6"/>
			<rect x="373.4" y="400" class="st2" width="26.6" height="26.6"/>
			<rect x="373.4" y="346.7" class="st1" width="26.6" height="26.6"/>
			<rect x="373.4" y="320.1" class="st3" width="26.6" height="26.6"/>
			<rect x="373.4" y="293.5" class="st3" width="26.6" height="26.6"/>
			<rect x="373.4" y="266.8" class="st3" width="26.6" height="26.6"/>
			<rect x="373.4" y="240.2" class="st3" width="26.6" height="26.6"/>
			<rect x="373.4" y="213.6" class="st3" width="26.6" height="26.6"/>
			<rect x="373.4" y="186.9" class="st1" width="26.6" height="26.6"/>
			<rect x="373.4" y="160.3" class="st1" width="26.6" height="26.6"/>
			<rect x="373.4" y="133.7" class="st1" width="26.6" height="26.6"/>
			<rect x="373.4" y="107" class="st1" width="26.6" height="26.6"/>
			<rect x="373.4" y="80.4" class="st1" width="26.6" height="26.6"/>
			<rect x="346.7" y="666.3" class="st1" width="26.6" height="26.6"/>
			<rect x="346.7" y="586.4" class="st1" width="26.6" height="26.6"/>
			<rect x="346.7" y="559.8" class="st3" width="26.6" height="26.6"/>
			<rect x="346.7" y="533.2" class="st3" width="26.6" height="26.6"/>
			<rect x="346.7" y="506.5" class="st3" width="26.6" height="26.6"/>
			<rect x="346.7" y="479.9" class="st1" width="26.6" height="26.6"/>
			<rect x="346.7" y="453.3" class="st3" width="26.6" height="26.6"/>
			<rect x="346.7" y="426.6" class="st3" width="26.6" height="26.6"/>
			<rect x="346.7" y="400" class="st1" width="26.6" height="26.6"/>
			<rect x="346.7" y="346.7" class="st1" width="26.6" height="26.6"/>
			<rect x="346.7" y="320.1" class="st3" width="26.6" height="26.6"/>
			<rect x="346.7" y="293.5" class="st3" width="26.6" height="26.6"/>
			<rect x="346.7" y="266.8" class="st3" width="26.6" height="26.6"/>
			<rect x="346.7" y="240.2" class="st3" width="26.6" height="26.6"/>
			<rect x="346.7" y="213.6" class="st3" width="26.6" height="26.6"/>
			<rect x="346.7" y="186.9" class="st3" width="26.6" height="26.6"/>
			<rect x="346.7" y="160.3" class="st1" width="26.6" height="26.6"/>
			<rect x="346.7" y="133.7" class="st1" width="26.6" height="26.6"/>
			<rect x="320.1" y="586.4" class="st1" width="26.6" height="26.6"/>
			<rect x="320.1" y="559.8" class="st3" width="26.6" height="26.6"/>
			<rect x="320.1" y="533.2" class="st3" width="26.6" height="26.6"/>
			<rect x="320.1" y="506.5" class="st3" width="26.6" height="26.6"/>
			<rect x="320.1" y="479.9" class="st1" width="26.6" height="26.6"/>
			<rect x="320.1" y="453.3" class="st1" width="26.6" height="26.6"/>
			<rect x="320.1" y="426.6" class="st3" width="26.6" height="26.6"/>
			<rect x="320.1" y="400" class="st1" width="26.6" height="26.6"/>
			<rect x="320.1" y="346.7" class="st1" width="26.6" height="26.6"/>
			<rect x="320.1" y="320.1" class="st3" width="26.6" height="26.6"/>
			<rect x="320.1" y="293.5" class="st3" width="26.6" height="26.6"/>
			<rect x="320.1" y="266.8" class="st3" width="26.6" height="26.6"/>
			<rect x="320.1" y="240.2" class="st3" width="26.6" height="26.6"/>
			<rect x="320.1" y="213.6" class="st1" width="26.6" height="26.6"/>
			<rect x="320.1" y="186.9" class="st3" width="26.6" height="26.6"/>
			<rect x="320.1" y="160.3" class="st1" width="26.6" height="26.6"/>
			<rect x="320.1" y="133.7" class="st1" width="26.6" height="26.6"/>
			<rect x="320.1" y="107" class="st1" width="26.6" height="26.6"/>
			<rect x="293.5" y="559.8" class="st1" width="26.6" height="26.6"/>
			<rect x="293.5" y="533.2" class="st3" width="26.6" height="26.6"/>
			<rect x="293.5" y="506.5" class="st3" width="26.6" height="26.6"/>
			<rect x="293.5" y="479.9" class="st3" width="26.6" height="26.6"/>
			<rect x="293.5" y="453.3" class="st1" width="26.6" height="26.6"/>
			<rect x="293.5" y="426.6" class="st1" width="26.6" height="26.6"/>
			<rect x="293.5" y="400" class="st3" width="26.6" height="26.6"/>
			<rect x="293.5" y="373.4" class="st1" width="26.6" height="26.6"/>
			<rect x="293.5" y="346.7" class="st3" width="26.6" height="26.6"/>
			<rect x="293.5" y="320.1" class="st3" width="26.6" height="26.6"/>
			<rect x="293.5" y="293.5" class="st3" width="26.6" height="26.6"/>
			<rect x="293.5" y="266.8" class="st3" width="26.6" height="26.6"/>
			<rect x="293.5" y="240.2" class="st3" width="26.6" height="26.6"/>
			<rect x="293.5" y="213.6" class="st3" width="26.6" height="26.6"/>
			<rect x="293.5" y="186.9" class="st3" width="26.6" height="26.6"/>
			<rect x="293.5" y="160.3" class="st1" width="26.6" height="26.6"/>
			<rect x="293.5" y="133.7" class="st1" width="26.6" height="26.6"/>
			<rect x="266.8" y="559.8" class="st1" width="26.6" height="26.6"/>
			<rect x="266.8" y="533.2" class="st3" width="26.6" height="26.6"/>
			<rect x="266.8" y="506.5" class="st3" width="26.6" height="26.6"/>
			<rect x="266.8" y="479.9" class="st3" width="26.6" height="26.6"/>
			<rect x="266.8" y="453.3" class="st3" width="26.6" height="26.6"/>
			<rect x="266.8" y="426.6" class="st3" width="26.6" height="26.6"/>
			<rect x="266.8" y="400" class="st3" width="26.6" height="26.6"/>
			<rect x="266.8" y="373.4" class="st3" width="26.6" height="26.6"/>
			<rect x="266.8" y="346.7" class="st3" width="26.6" height="26.6"/>
			<rect x="266.8" y="320.1" class="st3" width="26.6" height="26.6"/>
			<rect x="266.8" y="293.5" class="st3" width="26.6" height="26.6"/>
			<rect x="266.8" y="266.8" class="st3" width="26.6" height="26.6"/>
			<rect x="266.8" y="240.2" class="st3" width="26.6" height="26.6"/>
			<rect x="266.8" y="213.6" class="st3" width="26.6" height="26.6"/>
			<rect x="266.8" y="186.9" class="st3" width="26.6" height="26.6"/>
			<rect x="266.8" y="160.3" class="st1" width="26.6" height="26.6"/>
			<rect x="266.8" y="133.7" class="st1" width="26.6" height="26.6"/>
			<rect x="240.2" y="533.2" class="st1" width="26.6" height="26.6"/>
			<rect x="240.2" y="506.5" class="st3" width="26.6" height="26.6"/>
			<rect x="240.2" y="479.9" class="st3" width="26.6" height="26.6"/>
			<rect x="240.2" y="453.3" class="st3" width="26.6" height="26.6"/>
			<rect x="240.2" y="426.6" class="st3" width="26.6" height="26.6"/>
			<rect x="240.2" y="400" class="st3" width="26.6" height="26.6"/>
			<rect x="240.2" y="373.4" class="st3" width="26.6" height="26.6"/>
			<rect x="240.2" y="346.7" class="st3" width="26.6" height="26.6"/>
			<rect x="240.2" y="320.1" class="st3" width="26.6" height="26.6"/>
			<rect x="240.2" y="293.5" class="st1" width="26.6" height="26.6"/>
			<rect x="240.2" y="266.8" class="st1" width="26.6" height="26.6"/>
			<rect x="240.2" y="240.2" class="st3" width="26.6" height="26.6"/>
			<rect x="240.2" y="213.6" class="st3" width="26.6" height="26.6"/>
			<rect x="240.2" y="186.9" class="st3" width="26.6" height="26.6"/>
			<rect x="240.2" y="160.3" class="st1" width="26.6" height="26.6"/>
			<rect x="240.2" y="133.7" class="st1" width="26.6" height="26.6"/>
			<rect x="240.2" y="107" class="st1" width="26.6" height="26.6"/>
			<rect x="240.2" y="80.4" class="st1" width="26.6" height="26.6"/>
			<rect x="213.6" y="506.5" class="st1" width="26.6" height="26.6"/>
			<rect x="213.6" y="479.9" class="st3" width="26.6" height="26.6"/>
			<rect x="213.6" y="453.3" class="st3" width="26.6" height="26.6"/>
			<rect x="213.6" y="426.6" class="st3" width="26.6" height="26.6"/>
			<rect x="213.6" y="400" class="st3" width="26.6" height="26.6"/>
			<rect x="213.6" y="373.4" class="st1" width="26.6" height="26.6"/>
			<rect x="213.6" y="346.7" class="st1" width="26.6" height="26.6"/>
			<rect x="213.6" y="320.1" class="st1" width="26.6" height="26.6"/>
			<rect x="213.6" y="293.5" class="st3" width="26.6" height="26.6"/>
			<rect x="213.6" y="266.8" class="st1" width="26.6" height="26.6"/>
			<rect x="213.6" y="240.2" class="st1" width="26.6" height="26.6"/>
			<rect x="213.6" y="213.6" class="st1" width="26.6" height="26.6"/>
			<rect x="213.6" y="186.9" class="st1" width="26.6" height="26.6"/>
			<rect x="186.9" y="479.9" class="st1" width="26.6" height="26.6"/>
			<rect x="186.9" y="453.3" class="st1" width="26.6" height="26.6"/>
			<rect x="186.9" y="426.6" class="st1" width="26.6" height="26.6"/>
			<rect x="186.9" y="400" class="st1" width="26.6" height="26.6"/>
			<rect x="186.9" y="320.1" class="st1" width="26.6" height="26.6"/>
			<rect x="186.9" y="293.5" class="st3" width="26.6" height="26.6"/>
			<rect x="186.9" y="266.8" class="st1" width="26.6" height="26.6"/>
			<rect x="186.9" y="240.2" class="st3" width="26.6" height="26.6"/>
			<rect x="186.9" y="213.6" class="st1" width="26.6" height="26.6"/>
			<rect x="160.3" y="320.1" class="st1" width="26.6" height="26.6"/>
			<rect x="160.3" y="293.5" class="st3" width="26.6" height="26.6"/>
			<rect x="160.3" y="266.8" class="st1" width="26.6" height="26.6"/>
			<rect x="160.3" y="240.2" class="st3" width="26.6" height="26.6"/>
			<rect x="160.3" y="213.6" class="st1" width="26.6" height="26.6"/>
			<rect x="133.7" y="293.5" class="st1" width="26.6" height="26.6"/>
			<rect x="133.7" y="266.8" class="st1" width="26.6" height="26.6"/>
			<rect x="133.7" y="240.2" class="st1" width="26.6" height="26.6"/>
		</g>
		<g>
		</g>
	</g>
</g>
<rect x="240" y="134" class="st1" width="160" height="53"/>
<rect x="240" y="80" class="st1" width="27" height="67"/>
<rect x="320" y="107" class="st1" width="26" height="53"/>
<rect x="373" y="80" class="st1" width="27" height="134"/>
<rect x="400" y="187" class="st1" width="27" height="80"/>
<rect x="320" y="373" class="st0" width="133" height="27"/>
<rect x="427" y="347" class="st0" width="53" height="26"/>
<rect x="453" y="320" class="st0" width="54" height="27"/>
</svg>
